<svg width="844" height="57" viewBox="0 0 844 57" fill="none" xmlns="http://www.w3.org/2000/svg">
<path d="M98.8895 15V2.32H93.7695V0.899999H105.669V2.32H100.549V15H98.8895ZM107.241 15V0.899999H108.861V7.44H108.601C108.881 6.66667 109.334 6.08667 109.961 5.7C110.601 5.3 111.334 5.1 112.161 5.1C112.934 5.1 113.574 5.24 114.081 5.52C114.601 5.8 114.987 6.22667 115.241 6.8C115.494 7.36 115.621 8.07333 115.621 8.94V15H114.001V9.04C114.001 8.44 113.921 7.94667 113.761 7.56C113.614 7.17333 113.374 6.88667 113.041 6.7C112.721 6.51333 112.301 6.42 111.781 6.42C111.194 6.42 110.681 6.54667 110.241 6.8C109.801 7.05333 109.461 7.40667 109.221 7.86C108.981 8.31333 108.861 8.84667 108.861 9.46V15H107.241ZM118.408 2.86V1.04H120.408V2.86H118.408ZM118.608 15V5.28H120.228V15H118.608ZM126.536 15.18C126.03 15.18 125.536 15.1267 125.056 15.02C124.59 14.9267 124.15 14.7933 123.736 14.62C123.336 14.4333 122.99 14.2133 122.696 13.96L123.216 12.82C123.536 13.0733 123.883 13.2867 124.256 13.46C124.63 13.62 125.01 13.74 125.396 13.82C125.783 13.9 126.176 13.94 126.576 13.94C127.336 13.94 127.91 13.8 128.296 13.52C128.683 13.24 128.876 12.86 128.876 12.38C128.876 12.0067 128.75 11.7133 128.496 11.5C128.243 11.2733 127.843 11.1 127.296 10.98L125.476 10.58C124.636 10.4067 124.01 10.1067 123.596 9.68C123.196 9.25333 122.996 8.7 122.996 8.02C122.996 7.42 123.15 6.90667 123.456 6.48C123.776 6.04 124.223 5.7 124.796 5.46C125.37 5.22 126.036 5.1 126.796 5.1C127.25 5.1 127.683 5.14667 128.096 5.24C128.51 5.33333 128.896 5.47333 129.256 5.66C129.63 5.83333 129.95 6.05333 130.216 6.32L129.676 7.46C129.423 7.22 129.136 7.02 128.816 6.86C128.496 6.68667 128.163 6.56 127.816 6.48C127.483 6.38667 127.143 6.34 126.796 6.34C126.05 6.34 125.483 6.48667 125.096 6.78C124.71 7.07333 124.516 7.46 124.516 7.94C124.516 8.31333 124.636 8.62 124.876 8.86C125.116 9.1 125.49 9.27333 125.996 9.38L127.816 9.76C128.683 9.94667 129.33 10.2467 129.756 10.66C130.196 11.06 130.416 11.6067 130.416 12.3C130.416 12.8867 130.256 13.4 129.936 13.84C129.616 14.2667 129.163 14.6 128.576 14.84C128.003 15.0667 127.323 15.18 126.536 15.18ZM140.602 15L136.982 5.28H138.682L141.662 13.8H141.182L144.262 5.28H145.642L148.662 13.8H148.202L151.222 5.28H152.842L149.202 15H147.662L144.482 6.26H145.342L142.162 15H140.602ZM159.082 15.18C158.055 15.18 157.168 14.98 156.422 14.58C155.688 14.1667 155.115 13.5867 154.702 12.84C154.302 12.0933 154.102 11.2 154.102 10.16C154.102 9.14667 154.302 8.26667 154.702 7.52C155.102 6.76 155.648 6.16667 156.342 5.74C157.048 5.31333 157.862 5.1 158.782 5.1C159.662 5.1 160.415 5.29333 161.042 5.68C161.668 6.06667 162.148 6.61333 162.482 7.32C162.828 8.02667 163.002 8.87333 163.002 9.86V10.48H155.342V9.42H161.922L161.602 9.68C161.602 8.61333 161.362 7.78667 160.882 7.2C160.415 6.6 159.728 6.3 158.822 6.3C158.142 6.3 157.562 6.46 157.082 6.78C156.615 7.08667 156.262 7.52 156.022 8.08C155.782 8.62667 155.662 9.26667 155.662 10V10.12C155.662 10.9333 155.788 11.62 156.042 12.18C156.308 12.74 156.702 13.1667 157.222 13.46C157.742 13.74 158.362 13.88 159.082 13.88C159.655 13.88 160.208 13.7933 160.742 13.62C161.288 13.4333 161.802 13.1333 162.282 12.72L162.842 13.86C162.402 14.26 161.842 14.58 161.162 14.82C160.482 15.06 159.788 15.18 159.082 15.18ZM170.266 15.18C169.386 15.18 168.626 14.9533 167.986 14.5C167.36 14.0467 166.94 13.44 166.726 12.68H166.926V15H165.346V0.899999H166.966V7.54H166.726C166.953 6.79333 167.38 6.2 168.006 5.76C168.633 5.32 169.386 5.1 170.266 5.1C171.146 5.1 171.906 5.30667 172.546 5.72C173.186 6.12 173.68 6.7 174.026 7.46C174.386 8.20667 174.566 9.1 174.566 10.14C174.566 11.1667 174.386 12.06 174.026 12.82C173.68 13.5667 173.18 14.1467 172.526 14.56C171.886 14.9733 171.133 15.18 170.266 15.18ZM169.926 13.88C170.846 13.88 171.573 13.56 172.106 12.92C172.653 12.2667 172.926 11.34 172.926 10.14C172.926 8.92667 172.653 8 172.106 7.36C171.573 6.72 170.846 6.4 169.926 6.4C169.02 6.4 168.293 6.72 167.746 7.36C167.2 8 166.926 8.92667 166.926 10.14C166.926 11.34 167.2 12.2667 167.746 12.92C168.293 13.56 169.02 13.88 169.926 13.88ZM180.286 15.18C179.78 15.18 179.286 15.1267 178.806 15.02C178.34 14.9267 177.9 14.7933 177.486 14.62C177.086 14.4333 176.74 14.2133 176.446 13.96L176.966 12.82C177.286 13.0733 177.633 13.2867 178.006 13.46C178.38 13.62 178.76 13.74 179.146 13.82C179.533 13.9 179.926 13.94 180.326 13.94C181.086 13.94 181.66 13.8 182.046 13.52C182.433 13.24 182.626 12.86 182.626 12.38C182.626 12.0067 182.5 11.7133 182.246 11.5C181.993 11.2733 181.593 11.1 181.046 10.98L179.226 10.58C178.386 10.4067 177.76 10.1067 177.346 9.68C176.946 9.25333 176.746 8.7 176.746 8.02C176.746 7.42 176.9 6.90667 177.206 6.48C177.526 6.04 177.973 5.7 178.546 5.46C179.12 5.22 179.786 5.1 180.546 5.1C181 5.1 181.433 5.14667 181.846 5.24C182.26 5.33333 182.646 5.47333 183.006 5.66C183.38 5.83333 183.7 6.05333 183.966 6.32L183.426 7.46C183.173 7.22 182.886 7.02 182.566 6.86C182.246 6.68667 181.913 6.56 181.566 6.48C181.233 6.38667 180.893 6.34 180.546 6.34C179.8 6.34 179.233 6.48667 178.846 6.78C178.46 7.07333 178.266 7.46 178.266 7.94C178.266 8.31333 178.386 8.62 178.626 8.86C178.866 9.1 179.24 9.27333 179.746 9.38L181.566 9.76C182.433 9.94667 183.08 10.2467 183.506 10.66C183.946 11.06 184.166 11.6067 184.166 12.3C184.166 12.8867 184.006 13.4 183.686 13.84C183.366 14.2667 182.913 14.6 182.326 14.84C181.753 15.0667 181.073 15.18 180.286 15.18ZM186.435 2.86V1.04H188.435V2.86H186.435ZM186.635 15V5.28H188.255V15H186.635ZM195.184 15.18C194.037 15.18 193.177 14.8733 192.604 14.26C192.03 13.6467 191.744 12.7733 191.744 11.64V6.54H189.844V5.28H191.744V2.3H193.364V5.28H196.444V6.54H193.364V11.48C193.364 12.24 193.524 12.82 193.844 13.22C194.164 13.6067 194.684 13.8 195.404 13.8C195.617 13.8 195.83 13.7733 196.044 13.72C196.257 13.6667 196.45 13.6133 196.624 13.56L196.904 14.8C196.73 14.8933 196.477 14.98 196.144 15.06C195.81 15.14 195.49 15.18 195.184 15.18ZM202.558 15.18C201.532 15.18 200.645 14.98 199.898 14.58C199.165 14.1667 198.592 13.5867 198.178 12.84C197.778 12.0933 197.578 11.2 197.578 10.16C197.578 9.14667 197.778 8.26667 198.178 7.52C198.578 6.76 199.125 6.16667 199.818 5.74C200.525 5.31333 201.338 5.1 202.258 5.1C203.138 5.1 203.892 5.29333 204.518 5.68C205.145 6.06667 205.625 6.61333 205.958 7.32C206.305 8.02667 206.478 8.87333 206.478 9.86V10.48H198.818V9.42H205.398L205.078 9.68C205.078 8.61333 204.838 7.78667 204.358 7.2C203.892 6.6 203.205 6.3 202.298 6.3C201.618 6.3 201.038 6.46 200.558 6.78C200.092 7.08667 199.738 7.52 199.498 8.08C199.258 8.62667 199.138 9.26667 199.138 10V10.12C199.138 10.9333 199.265 11.62 199.518 12.18C199.785 12.74 200.178 13.1667 200.698 13.46C201.218 13.74 201.838 13.88 202.558 13.88C203.132 13.88 203.685 13.7933 204.218 13.62C204.765 13.4333 205.278 13.1333 205.758 12.72L206.318 13.86C205.878 14.26 205.318 14.58 204.638 14.82C203.958 15.06 203.265 15.18 202.558 15.18ZM218.079 15.18C217.106 15.18 216.266 14.9667 215.559 14.54C214.853 14.1133 214.306 13.52 213.919 12.76C213.546 11.9867 213.359 11.0933 213.359 10.08C213.359 9.05333 213.546 8.16667 213.919 7.42C214.306 6.67333 214.853 6.1 215.559 5.7C216.266 5.3 217.106 5.1 218.079 5.1C218.679 5.1 219.273 5.20667 219.859 5.42C220.446 5.63333 220.933 5.93333 221.319 6.32L220.759 7.5C220.373 7.12667 219.946 6.85333 219.479 6.68C219.026 6.50667 218.593 6.42 218.179 6.42C217.166 6.42 216.386 6.74 215.839 7.38C215.293 8.00667 215.019 8.91333 215.019 10.1C215.019 11.26 215.293 12.18 215.839 12.86C216.386 13.5267 217.166 13.86 218.179 13.86C218.593 13.86 219.026 13.7733 219.479 13.6C219.946 13.4267 220.373 13.1467 220.759 12.76L221.319 13.94C220.933 14.3267 220.439 14.6333 219.839 14.86C219.253 15.0733 218.666 15.18 218.079 15.18ZM227.062 15.18C226.115 15.18 225.295 14.9733 224.602 14.56C223.909 14.1467 223.369 13.5667 222.982 12.82C222.609 12.06 222.422 11.1667 222.422 10.14C222.422 9.11333 222.609 8.22667 222.982 7.48C223.369 6.72 223.909 6.13333 224.602 5.72C225.295 5.30667 226.115 5.1 227.062 5.1C228.009 5.1 228.829 5.30667 229.522 5.72C230.215 6.13333 230.749 6.72 231.122 7.48C231.509 8.22667 231.702 9.11333 231.702 10.14C231.702 11.1667 231.509 12.06 231.122 12.82C230.749 13.5667 230.215 14.1467 229.522 14.56C228.829 14.9733 228.009 15.18 227.062 15.18ZM227.062 13.88C227.982 13.88 228.709 13.56 229.242 12.92C229.789 12.2667 230.062 11.3333 230.062 10.12C230.062 8.92 229.789 8 229.242 7.36C228.709 6.72 227.982 6.4 227.062 6.4C226.155 6.4 225.429 6.72 224.882 7.36C224.335 8 224.062 8.92 224.062 10.12C224.062 11.3333 224.335 12.2667 224.882 12.92C225.429 13.56 226.155 13.88 227.062 13.88ZM234.135 15V5.28H235.715V7.44H235.495C235.775 6.66667 236.229 6.08667 236.855 5.7C237.495 5.3 238.229 5.1 239.055 5.1C239.829 5.1 240.469 5.24 240.975 5.52C241.495 5.78667 241.882 6.20667 242.135 6.78C242.389 7.35333 242.515 8.07333 242.515 8.94V15H240.895V9.04C240.895 8.44 240.815 7.94667 240.655 7.56C240.509 7.17333 240.269 6.88667 239.935 6.7C239.615 6.51333 239.195 6.42 238.675 6.42C238.089 6.42 237.575 6.54667 237.135 6.8C236.695 7.05333 236.355 7.40667 236.115 7.86C235.875 8.31333 235.755 8.84667 235.755 9.46V15H234.135ZM249.402 15.18C248.256 15.18 247.396 14.8733 246.822 14.26C246.249 13.6467 245.962 12.7733 245.962 11.64V6.54H244.062V5.28H245.962V2.3H247.582V5.28H250.662V6.54H247.582V11.48C247.582 12.24 247.742 12.82 248.062 13.22C248.382 13.6067 248.902 13.8 249.622 13.8C249.836 13.8 250.049 13.7733 250.262 13.72C250.476 13.6667 250.669 13.6133 250.842 13.56L251.122 14.8C250.949 14.8933 250.696 14.98 250.362 15.06C250.029 15.14 249.709 15.18 249.402 15.18ZM255.555 15.18C254.888 15.18 254.288 15.0533 253.755 14.8C253.235 14.5333 252.821 14.1733 252.515 13.72C252.208 13.2667 252.055 12.76 252.055 12.2C252.055 11.48 252.235 10.9133 252.595 10.5C252.968 10.0867 253.575 9.79333 254.415 9.62C255.268 9.44667 256.428 9.36 257.895 9.36H258.795V10.42H257.915C257.101 10.42 256.421 10.4467 255.875 10.5C255.328 10.5533 254.895 10.6467 254.575 10.78C254.255 10.9133 254.028 11.0867 253.895 11.3C253.761 11.5133 253.695 11.78 253.695 12.1C253.695 12.6467 253.881 13.0933 254.255 13.44C254.641 13.7867 255.161 13.96 255.815 13.96C256.348 13.96 256.815 13.8333 257.215 13.58C257.628 13.3267 257.948 12.98 258.175 12.54C258.415 12.1 258.535 11.5933 258.535 11.02V8.74C258.535 7.91333 258.368 7.32 258.035 6.96C257.701 6.58667 257.155 6.4 256.395 6.4C255.808 6.4 255.241 6.48667 254.695 6.66C254.148 6.82 253.588 7.08667 253.015 7.46L252.455 6.28C252.801 6.04 253.195 5.83333 253.635 5.66C254.075 5.47333 254.535 5.33333 255.015 5.24C255.495 5.14667 255.955 5.1 256.395 5.1C257.235 5.1 257.928 5.24 258.475 5.52C259.021 5.78667 259.428 6.2 259.695 6.76C259.961 7.30667 260.095 8.01333 260.095 8.88V15H258.575V12.74H258.755C258.648 13.2467 258.441 13.68 258.135 14.04C257.841 14.4 257.475 14.68 257.035 14.88C256.595 15.08 256.101 15.18 255.555 15.18ZM262.9 2.86V1.04H264.9V2.86H262.9ZM263.1 15V5.28H264.72V15H263.1ZM267.749 15V5.28H269.329V7.44H269.109C269.389 6.66667 269.842 6.08667 270.469 5.7C271.109 5.3 271.842 5.1 272.669 5.1C273.442 5.1 274.082 5.24 274.589 5.52C275.109 5.78667 275.495 6.20667 275.749 6.78C276.002 7.35333 276.129 8.07333 276.129 8.94V15H274.509V9.04C274.509 8.44 274.429 7.94667 274.269 7.56C274.122 7.17333 273.882 6.88667 273.549 6.7C273.229 6.51333 272.809 6.42 272.289 6.42C271.702 6.42 271.189 6.54667 270.749 6.8C270.309 7.05333 269.969 7.40667 269.729 7.86C269.489 8.31333 269.369 8.84667 269.369 9.46V15H267.749ZM282.396 15.18C281.889 15.18 281.396 15.1267 280.916 15.02C280.449 14.9267 280.009 14.7933 279.596 14.62C279.196 14.4333 278.849 14.2133 278.556 13.96L279.076 12.82C279.396 13.0733 279.742 13.2867 280.116 13.46C280.489 13.62 280.869 13.74 281.256 13.82C281.642 13.9 282.036 13.94 282.436 13.94C283.196 13.94 283.769 13.8 284.156 13.52C284.542 13.24 284.736 12.86 284.736 12.38C284.736 12.0067 284.609 11.7133 284.356 11.5C284.102 11.2733 283.702 11.1 283.156 10.98L281.336 10.58C280.496 10.4067 279.869 10.1067 279.456 9.68C279.056 9.25333 278.856 8.7 278.856 8.02C278.856 7.42 279.009 6.90667 279.316 6.48C279.636 6.04 280.082 5.7 280.656 5.46C281.229 5.22 281.896 5.1 282.656 5.1C283.109 5.1 283.542 5.14667 283.956 5.24C284.369 5.33333 284.756 5.47333 285.116 5.66C285.489 5.83333 285.809 6.05333 286.076 6.32L285.536 7.46C285.282 7.22 284.996 7.02 284.676 6.86C284.356 6.68667 284.022 6.56 283.676 6.48C283.342 6.38667 283.002 6.34 282.656 6.34C281.909 6.34 281.342 6.48667 280.956 6.78C280.569 7.07333 280.376 7.46 280.376 7.94C280.376 8.31333 280.496 8.62 280.736 8.86C280.976 9.1 281.349 9.27333 281.856 9.38L283.676 9.76C284.542 9.94667 285.189 10.2467 285.616 10.66C286.056 11.06 286.276 11.6067 286.276 12.3C286.276 12.8867 286.116 13.4 285.796 13.84C285.476 14.2667 285.022 14.6 284.436 14.84C283.862 15.0667 283.182 15.18 282.396 15.18ZM298.001 15.18C297.028 15.18 296.188 14.9667 295.481 14.54C294.775 14.1133 294.228 13.52 293.841 12.76C293.468 11.9867 293.281 11.0933 293.281 10.08C293.281 9.05333 293.468 8.16667 293.841 7.42C294.228 6.67333 294.775 6.1 295.481 5.7C296.188 5.3 297.028 5.1 298.001 5.1C298.601 5.1 299.195 5.20667 299.781 5.42C300.368 5.63333 300.855 5.93333 301.241 6.32L300.681 7.5C300.295 7.12667 299.868 6.85333 299.401 6.68C298.948 6.50667 298.515 6.42 298.101 6.42C297.088 6.42 296.308 6.74 295.761 7.38C295.215 8.00667 294.941 8.91333 294.941 10.1C294.941 11.26 295.215 12.18 295.761 12.86C296.308 13.5267 297.088 13.86 298.101 13.86C298.515 13.86 298.948 13.7733 299.401 13.6C299.868 13.4267 300.295 13.1467 300.681 12.76L301.241 13.94C300.855 14.3267 300.361 14.6333 299.761 14.86C299.175 15.0733 298.588 15.18 298.001 15.18ZM306.984 15.18C306.037 15.18 305.217 14.9733 304.524 14.56C303.83 14.1467 303.29 13.5667 302.904 12.82C302.53 12.06 302.344 11.1667 302.344 10.14C302.344 9.11333 302.53 8.22667 302.904 7.48C303.29 6.72 303.83 6.13333 304.524 5.72C305.217 5.30667 306.037 5.1 306.984 5.1C307.93 5.1 308.75 5.30667 309.444 5.72C310.137 6.13333 310.67 6.72 311.044 7.48C311.43 8.22667 311.624 9.11333 311.624 10.14C311.624 11.1667 311.43 12.06 311.044 12.82C310.67 13.5667 310.137 14.1467 309.444 14.56C308.75 14.9733 307.93 15.18 306.984 15.18ZM306.984 13.88C307.904 13.88 308.63 13.56 309.164 12.92C309.71 12.2667 309.984 11.3333 309.984 10.12C309.984 8.92 309.71 8 309.164 7.36C308.63 6.72 307.904 6.4 306.984 6.4C306.077 6.4 305.35 6.72 304.804 7.36C304.257 8 303.984 8.92 303.984 10.12C303.984 11.3333 304.257 12.2667 304.804 12.92C305.35 13.56 306.077 13.88 306.984 13.88ZM314.057 18.6V5.28H315.637V7.58H315.437C315.65 6.82 316.07 6.22 316.697 5.78C317.337 5.32667 318.097 5.1 318.977 5.1C319.844 5.1 320.597 5.30667 321.237 5.72C321.89 6.12 322.39 6.7 322.737 7.46C323.097 8.20667 323.277 9.1 323.277 10.14C323.277 11.1667 323.097 12.06 322.737 12.82C322.39 13.5667 321.897 14.1467 321.257 14.56C320.617 14.9733 319.857 15.18 318.977 15.18C318.097 15.18 317.344 14.96 316.717 14.52C316.09 14.0667 315.664 13.4667 315.437 12.72H315.677V18.6H314.057ZM318.637 13.88C319.557 13.88 320.284 13.56 320.817 12.92C321.364 12.2667 321.637 11.34 321.637 10.14C321.637 8.92667 321.364 8 320.817 7.36C320.284 6.72 319.557 6.4 318.637 6.4C317.73 6.4 317.004 6.72 316.457 7.36C315.91 8 315.637 8.92667 315.637 10.14C315.637 11.34 315.91 12.2667 316.457 12.92C317.004 13.56 317.73 13.88 318.637 13.88ZM326.701 18.6L328.521 14.5V15.2L324.261 5.28H326.021L329.501 13.8H328.961L332.481 5.28H334.181L328.401 18.6H326.701ZM335.854 15V5.28H337.434V7.58H337.234C337.461 6.79333 337.854 6.2 338.414 5.8C338.974 5.38667 339.714 5.14667 340.634 5.08L341.214 5.02L341.334 6.42L340.314 6.54C339.407 6.62 338.707 6.91333 338.214 7.42C337.734 7.91333 337.494 8.59333 337.494 9.46V15H335.854ZM342.822 2.86V1.04H344.822V2.86H342.822ZM343.022 15V5.28H344.642V15H343.022ZM351.97 18.78C351.13 18.78 350.337 18.6667 349.59 18.44C348.857 18.2267 348.204 17.9 347.63 17.46L348.17 16.28C348.57 16.56 348.964 16.7867 349.35 16.96C349.75 17.1467 350.157 17.28 350.57 17.36C350.997 17.44 351.437 17.48 351.89 17.48C352.837 17.48 353.55 17.2267 354.03 16.72C354.524 16.2133 354.77 15.48 354.77 14.52V12.26H354.97C354.77 13.0333 354.344 13.6467 353.69 14.1C353.05 14.5533 352.297 14.78 351.43 14.78C350.537 14.78 349.764 14.58 349.11 14.18C348.457 13.7667 347.95 13.1933 347.59 12.46C347.244 11.7267 347.07 10.88 347.07 9.92C347.07 8.96 347.244 8.12 347.59 7.4C347.95 6.66667 348.457 6.1 349.11 5.7C349.764 5.3 350.537 5.1 351.43 5.1C352.31 5.1 353.07 5.32667 353.71 5.78C354.35 6.22 354.764 6.82 354.95 7.58H354.77V5.28H356.35V14.3C356.35 15.2867 356.184 16.1133 355.85 16.78C355.53 17.4467 355.044 17.9467 354.39 18.28C353.737 18.6133 352.93 18.78 351.97 18.78ZM351.73 13.46C352.664 13.46 353.404 13.14 353.95 12.5C354.497 11.86 354.77 11 354.77 9.92C354.77 8.84 354.497 7.98667 353.95 7.36C353.404 6.72 352.664 6.4 351.73 6.4C350.81 6.4 350.077 6.72 349.53 7.36C348.984 7.98667 348.71 8.84 348.71 9.92C348.71 11 348.984 11.86 349.53 12.5C350.077 13.14 350.81 13.46 351.73 13.46ZM359.389 15V0.899999H361.009V7.44H360.749C361.029 6.66667 361.482 6.08667 362.109 5.7C362.749 5.3 363.482 5.1 364.309 5.1C365.082 5.1 365.722 5.24 366.229 5.52C366.749 5.8 367.136 6.22667 367.389 6.8C367.642 7.36 367.769 8.07333 367.769 8.94V15H366.149V9.04C366.149 8.44 366.069 7.94667 365.909 7.56C365.762 7.17333 365.522 6.88667 365.189 6.7C364.869 6.51333 364.449 6.42 363.929 6.42C363.342 6.42 362.829 6.54667 362.389 6.8C361.949 7.05333 361.609 7.40667 361.369 7.86C361.129 8.31333 361.009 8.84667 361.009 9.46V15H359.389ZM374.656 15.18C373.51 15.18 372.65 14.8733 372.076 14.26C371.503 13.6467 371.216 12.7733 371.216 11.64V6.54H369.316V5.28H371.216V2.3H372.836V5.28H375.916V6.54H372.836V11.48C372.836 12.24 372.996 12.82 373.316 13.22C373.636 13.6067 374.156 13.8 374.876 13.8C375.09 13.8 375.303 13.7733 375.516 13.72C375.73 13.6667 375.923 13.6133 376.096 13.56L376.376 14.8C376.203 14.8933 375.95 14.98 375.616 15.06C375.283 15.14 374.963 15.18 374.656 15.18ZM382.031 15.18C381.004 15.18 380.118 14.98 379.371 14.58C378.638 14.1667 378.064 13.5867 377.651 12.84C377.251 12.0933 377.051 11.2 377.051 10.16C377.051 9.14667 377.251 8.26667 377.651 7.52C378.051 6.76 378.598 6.16667 379.291 5.74C379.998 5.31333 380.811 5.1 381.731 5.1C382.611 5.1 383.364 5.29333 383.991 5.68C384.618 6.06667 385.098 6.61333 385.431 7.32C385.778 8.02667 385.951 8.87333 385.951 9.86V10.48H378.291V9.42H384.871L384.551 9.68C384.551 8.61333 384.311 7.78667 383.831 7.2C383.364 6.6 382.678 6.3 381.771 6.3C381.091 6.3 380.511 6.46 380.031 6.78C379.564 7.08667 379.211 7.52 378.971 8.08C378.731 8.62667 378.611 9.26667 378.611 10V10.12C378.611 10.9333 378.738 11.62 378.991 12.18C379.258 12.74 379.651 13.1667 380.171 13.46C380.691 13.74 381.311 13.88 382.031 13.88C382.604 13.88 383.158 13.7933 383.691 13.62C384.238 13.4333 384.751 13.1333 385.231 12.72L385.791 13.86C385.351 14.26 384.791 14.58 384.111 14.82C383.431 15.06 382.738 15.18 382.031 15.18ZM391.995 15.18C391.129 15.18 390.369 14.9733 389.715 14.56C389.075 14.1467 388.575 13.5667 388.215 12.82C387.869 12.06 387.695 11.1667 387.695 10.14C387.695 9.1 387.869 8.20667 388.215 7.46C388.575 6.7 389.075 6.12 389.715 5.72C390.369 5.30667 391.129 5.1 391.995 5.1C392.875 5.1 393.629 5.32 394.255 5.76C394.882 6.2 395.302 6.79333 395.515 7.54H395.295V0.899999H396.915V15H395.335V12.68H395.535C395.322 13.44 394.895 14.0467 394.255 14.5C393.629 14.9533 392.875 15.18 391.995 15.18ZM392.335 13.88C393.255 13.88 393.982 13.56 394.515 12.92C395.062 12.2667 395.335 11.34 395.335 10.14C395.335 8.92667 395.062 8 394.515 7.36C393.982 6.72 393.255 6.4 392.335 6.4C391.429 6.4 390.702 6.72 390.155 7.36C389.609 8 389.335 8.92667 389.335 10.14C389.335 11.34 389.609 12.2667 390.155 12.92C390.702 13.56 391.429 13.88 392.335 13.88ZM405.132 15V5.28H406.712V7.44H406.492C406.652 6.94667 406.886 6.52667 407.192 6.18C407.512 5.82 407.886 5.55333 408.312 5.38C408.752 5.19333 409.232 5.1 409.752 5.1C410.579 5.1 411.246 5.3 411.752 5.7C412.272 6.08667 412.619 6.69333 412.792 7.52H412.492C412.732 6.77333 413.159 6.18667 413.772 5.76C414.399 5.32 415.126 5.1 415.952 5.1C416.686 5.1 417.286 5.24 417.752 5.52C418.232 5.8 418.592 6.22667 418.832 6.8C419.072 7.36 419.192 8.07333 419.192 8.94V15H417.572V9.02C417.572 8.12667 417.419 7.47333 417.112 7.06C416.806 6.63333 416.286 6.42 415.552 6.42C415.032 6.42 414.572 6.54667 414.172 6.8C413.786 7.05333 413.486 7.41333 413.272 7.88C413.072 8.33333 412.972 8.87333 412.972 9.5V15H411.352V9.02C411.352 8.12667 411.192 7.47333 410.872 7.06C410.566 6.63333 410.052 6.42 409.332 6.42C408.799 6.42 408.339 6.54667 407.952 6.8C407.566 7.05333 407.266 7.41333 407.052 7.88C406.852 8.33333 406.752 8.87333 406.752 9.5V15H405.132ZM425.661 15.18C424.875 15.18 424.221 15.04 423.701 14.76C423.195 14.4667 422.808 14.0333 422.541 13.46C422.288 12.8867 422.161 12.1733 422.161 11.32V5.28H423.781V11.3C423.781 11.8733 423.855 12.3533 424.001 12.74C424.161 13.1133 424.408 13.3933 424.741 13.58C425.075 13.7533 425.488 13.84 425.981 13.84C426.541 13.84 427.028 13.7133 427.441 13.46C427.855 13.2067 428.181 12.8533 428.421 12.4C428.661 11.9467 428.781 11.4133 428.781 10.8V5.28H430.401V15H428.821V12.76H429.081C428.815 13.5467 428.375 14.1467 427.761 14.56C427.161 14.9733 426.461 15.18 425.661 15.18ZM436.712 15.18C436.205 15.18 435.712 15.1267 435.232 15.02C434.765 14.9267 434.325 14.7933 433.912 14.62C433.512 14.4333 433.165 14.2133 432.872 13.96L433.392 12.82C433.712 13.0733 434.059 13.2867 434.432 13.46C434.805 13.62 435.185 13.74 435.572 13.82C435.959 13.9 436.352 13.94 436.752 13.94C437.512 13.94 438.085 13.8 438.472 13.52C438.859 13.24 439.052 12.86 439.052 12.38C439.052 12.0067 438.925 11.7133 438.672 11.5C438.419 11.2733 438.019 11.1 437.472 10.98L435.652 10.58C434.812 10.4067 434.185 10.1067 433.772 9.68C433.372 9.25333 433.172 8.7 433.172 8.02C433.172 7.42 433.325 6.90667 433.632 6.48C433.952 6.04 434.399 5.7 434.972 5.46C435.545 5.22 436.212 5.1 436.972 5.1C437.425 5.1 437.859 5.14667 438.272 5.24C438.685 5.33333 439.072 5.47333 439.432 5.66C439.805 5.83333 440.125 6.05333 440.392 6.32L439.852 7.46C439.599 7.22 439.312 7.02 438.992 6.86C438.672 6.68667 438.339 6.56 437.992 6.48C437.659 6.38667 437.319 6.34 436.972 6.34C436.225 6.34 435.659 6.48667 435.272 6.78C434.885 7.07333 434.692 7.46 434.692 7.94C434.692 8.31333 434.812 8.62 435.052 8.86C435.292 9.1 435.665 9.27333 436.172 9.38L437.992 9.76C438.859 9.94667 439.505 10.2467 439.932 10.66C440.372 11.06 440.592 11.6067 440.592 12.3C440.592 12.8867 440.432 13.4 440.112 13.84C439.792 14.2667 439.339 14.6 438.752 14.84C438.179 15.0667 437.499 15.18 436.712 15.18ZM442.861 2.86V1.04H444.861V2.86H442.861ZM443.061 15V5.28H444.681V15H443.061ZM451.829 15.18C450.856 15.18 450.016 14.9667 449.309 14.54C448.603 14.1133 448.056 13.52 447.669 12.76C447.296 11.9867 447.109 11.0933 447.109 10.08C447.109 9.05333 447.296 8.16667 447.669 7.42C448.056 6.67333 448.603 6.1 449.309 5.7C450.016 5.3 450.856 5.1 451.829 5.1C452.429 5.1 453.023 5.20667 453.609 5.42C454.196 5.63333 454.683 5.93333 455.069 6.32L454.509 7.5C454.123 7.12667 453.696 6.85333 453.229 6.68C452.776 6.50667 452.343 6.42 451.929 6.42C450.916 6.42 450.136 6.74 449.589 7.38C449.043 8.00667 448.769 8.91333 448.769 10.1C448.769 11.26 449.043 12.18 449.589 12.86C450.136 13.5267 450.916 13.86 451.929 13.86C452.343 13.86 452.776 13.7733 453.229 13.6C453.696 13.4267 454.123 13.1467 454.509 12.76L455.069 13.94C454.683 14.3267 454.189 14.6333 453.589 14.86C453.003 15.0733 452.416 15.18 451.829 15.18ZM457.743 17.28L456.983 16.7C457.223 16.4467 457.403 16.2067 457.523 15.98C457.656 15.7667 457.743 15.5467 457.783 15.32C457.836 15.1067 457.863 14.8867 457.863 14.66L458.223 15H456.903V12.96H458.943V14.4C458.943 14.76 458.903 15.1 458.823 15.42C458.756 15.7533 458.636 16.0733 458.463 16.38C458.289 16.6867 458.049 16.9867 457.743 17.28ZM470.97 15.18C469.997 15.18 469.157 14.9667 468.45 14.54C467.743 14.1133 467.197 13.52 466.81 12.76C466.437 11.9867 466.25 11.0933 466.25 10.08C466.25 9.05333 466.437 8.16667 466.81 7.42C467.197 6.67333 467.743 6.1 468.45 5.7C469.157 5.3 469.997 5.1 470.97 5.1C471.57 5.1 472.163 5.20667 472.75 5.42C473.337 5.63333 473.823 5.93333 474.21 6.32L473.65 7.5C473.263 7.12667 472.837 6.85333 472.37 6.68C471.917 6.50667 471.483 6.42 471.07 6.42C470.057 6.42 469.277 6.74 468.73 7.38C468.183 8.00667 467.91 8.91333 467.91 10.1C467.91 11.26 468.183 12.18 468.73 12.86C469.277 13.5267 470.057 13.86 471.07 13.86C471.483 13.86 471.917 13.7733 472.37 13.6C472.837 13.4267 473.263 13.1467 473.65 12.76L474.21 13.94C473.823 14.3267 473.33 14.6333 472.73 14.86C472.143 15.0733 471.557 15.18 470.97 15.18ZM479.953 15.18C479.006 15.18 478.186 14.9733 477.493 14.56C476.799 14.1467 476.259 13.5667 475.873 12.82C475.499 12.06 475.313 11.1667 475.313 10.14C475.313 9.11333 475.499 8.22667 475.873 7.48C476.259 6.72 476.799 6.13333 477.493 5.72C478.186 5.30667 479.006 5.1 479.953 5.1C480.899 5.1 481.719 5.30667 482.413 5.72C483.106 6.13333 483.639 6.72 484.013 7.48C484.399 8.22667 484.593 9.11333 484.593 10.14C484.593 11.1667 484.399 12.06 484.013 12.82C483.639 13.5667 483.106 14.1467 482.413 14.56C481.719 14.9733 480.899 15.18 479.953 15.18ZM479.953 13.88C480.873 13.88 481.599 13.56 482.133 12.92C482.679 12.2667 482.953 11.3333 482.953 10.12C482.953 8.92 482.679 8 482.133 7.36C481.599 6.72 480.873 6.4 479.953 6.4C479.046 6.4 478.319 6.72 477.773 7.36C477.226 8 476.953 8.92 476.953 10.12C476.953 11.3333 477.226 12.2667 477.773 12.92C478.319 13.56 479.046 13.88 479.953 13.88ZM487.026 15V5.28H488.606V7.44H488.386C488.666 6.66667 489.119 6.08667 489.746 5.7C490.386 5.3 491.119 5.1 491.946 5.1C492.719 5.1 493.359 5.24 493.866 5.52C494.386 5.78667 494.773 6.20667 495.026 6.78C495.279 7.35333 495.406 8.07333 495.406 8.94V15H493.786V9.04C493.786 8.44 493.706 7.94667 493.546 7.56C493.399 7.17333 493.159 6.88667 492.826 6.7C492.506 6.51333 492.086 6.42 491.566 6.42C490.979 6.42 490.466 6.54667 490.026 6.8C489.586 7.05333 489.246 7.40667 489.006 7.86C488.766 8.31333 488.646 8.84667 488.646 9.46V15H487.026ZM501.673 15.18C501.166 15.18 500.673 15.1267 500.193 15.02C499.726 14.9267 499.286 14.7933 498.873 14.62C498.473 14.4333 498.126 14.2133 497.833 13.96L498.353 12.82C498.673 13.0733 499.02 13.2867 499.393 13.46C499.766 13.62 500.146 13.74 500.533 13.82C500.92 13.9 501.313 13.94 501.713 13.94C502.473 13.94 503.046 13.8 503.433 13.52C503.82 13.24 504.013 12.86 504.013 12.38C504.013 12.0067 503.886 11.7133 503.633 11.5C503.38 11.2733 502.98 11.1 502.433 10.98L500.613 10.58C499.773 10.4067 499.146 10.1067 498.733 9.68C498.333 9.25333 498.133 8.7 498.133 8.02C498.133 7.42 498.286 6.90667 498.593 6.48C498.913 6.04 499.36 5.7 499.933 5.46C500.506 5.22 501.173 5.1 501.933 5.1C502.386 5.1 502.82 5.14667 503.233 5.24C503.646 5.33333 504.033 5.47333 504.393 5.66C504.766 5.83333 505.086 6.05333 505.353 6.32L504.813 7.46C504.56 7.22 504.273 7.02 503.953 6.86C503.633 6.68667 503.3 6.56 502.953 6.48C502.62 6.38667 502.28 6.34 501.933 6.34C501.186 6.34 500.62 6.48667 500.233 6.78C499.846 7.07333 499.653 7.46 499.653 7.94C499.653 8.31333 499.773 8.62 500.013 8.86C500.253 9.1 500.626 9.27333 501.133 9.38L502.953 9.76C503.82 9.94667 504.466 10.2467 504.893 10.66C505.333 11.06 505.553 11.6067 505.553 12.3C505.553 12.8867 505.393 13.4 505.073 13.84C504.753 14.2667 504.3 14.6 503.713 14.84C503.14 15.0667 502.46 15.18 501.673 15.18ZM507.822 2.86V1.04H509.822V2.86H507.822ZM508.022 15V5.28H509.642V15H508.022ZM516.37 15.18C515.504 15.18 514.744 14.9733 514.09 14.56C513.45 14.1467 512.95 13.5667 512.59 12.82C512.244 12.06 512.07 11.1667 512.07 10.14C512.07 9.1 512.244 8.20667 512.59 7.46C512.95 6.7 513.45 6.12 514.09 5.72C514.744 5.30667 515.504 5.1 516.37 5.1C517.25 5.1 518.004 5.32 518.63 5.76C519.257 6.2 519.677 6.79333 519.89 7.54H519.67V0.899999H521.29V15H519.71V12.68H519.91C519.697 13.44 519.27 14.0467 518.63 14.5C518.004 14.9533 517.25 15.18 516.37 15.18ZM516.71 13.88C517.63 13.88 518.357 13.56 518.89 12.92C519.437 12.2667 519.71 11.34 519.71 10.14C519.71 8.92667 519.437 8 518.89 7.36C518.357 6.72 517.63 6.4 516.71 6.4C515.804 6.4 515.077 6.72 514.53 7.36C513.984 8 513.71 8.92667 513.71 10.14C513.71 11.34 513.984 12.2667 514.53 12.92C515.077 13.56 515.804 13.88 516.71 13.88ZM528.711 15.18C527.684 15.18 526.797 14.98 526.051 14.58C525.317 14.1667 524.744 13.5867 524.331 12.84C523.931 12.0933 523.731 11.2 523.731 10.16C523.731 9.14667 523.931 8.26667 524.331 7.52C524.731 6.76 525.277 6.16667 525.971 5.74C526.677 5.31333 527.491 5.1 528.411 5.1C529.291 5.1 530.044 5.29333 530.671 5.68C531.297 6.06667 531.777 6.61333 532.111 7.32C532.457 8.02667 532.631 8.87333 532.631 9.86V10.48H524.971V9.42H531.551L531.231 9.68C531.231 8.61333 530.991 7.78667 530.511 7.2C530.044 6.6 529.357 6.3 528.451 6.3C527.771 6.3 527.191 6.46 526.711 6.78C526.244 7.08667 525.891 7.52 525.651 8.08C525.411 8.62667 525.291 9.26667 525.291 10V10.12C525.291 10.9333 525.417 11.62 525.671 12.18C525.937 12.74 526.331 13.1667 526.851 13.46C527.371 13.74 527.991 13.88 528.711 13.88C529.284 13.88 529.837 13.7933 530.371 13.62C530.917 13.4333 531.431 13.1333 531.911 12.72L532.471 13.86C532.031 14.26 531.471 14.58 530.791 14.82C530.111 15.06 529.417 15.18 528.711 15.18ZM534.975 15V5.28H536.555V7.58H536.355C536.582 6.79333 536.975 6.2 537.535 5.8C538.095 5.38667 538.835 5.14667 539.755 5.08L540.335 5.02L540.455 6.42L539.435 6.54C538.528 6.62 537.828 6.91333 537.335 7.42C536.855 7.91333 536.615 8.59333 536.615 9.46V15H534.975ZM552.2 15.18C551.32 15.18 550.56 14.9533 549.92 14.5C549.293 14.0467 548.873 13.44 548.66 12.68H548.86V15H547.28V0.899999H548.9V7.54H548.66C548.886 6.79333 549.313 6.2 549.94 5.76C550.566 5.32 551.32 5.1 552.2 5.1C553.08 5.1 553.84 5.30667 554.48 5.72C555.12 6.12 555.613 6.7 555.96 7.46C556.32 8.20667 556.5 9.1 556.5 10.14C556.5 11.1667 556.32 12.06 555.96 12.82C555.613 13.5667 555.113 14.1467 554.46 14.56C553.82 14.9733 553.066 15.18 552.2 15.18ZM551.86 13.88C552.78 13.88 553.506 13.56 554.04 12.92C554.586 12.2667 554.86 11.34 554.86 10.14C554.86 8.92667 554.586 8 554.04 7.36C553.506 6.72 552.78 6.4 551.86 6.4C550.953 6.4 550.226 6.72 549.68 7.36C549.133 8 548.86 8.92667 548.86 10.14C548.86 11.34 549.133 12.2667 549.68 12.92C550.226 13.56 550.953 13.88 551.86 13.88ZM563.32 15.18C562.293 15.18 561.407 14.98 560.66 14.58C559.927 14.1667 559.353 13.5867 558.94 12.84C558.54 12.0933 558.34 11.2 558.34 10.16C558.34 9.14667 558.54 8.26667 558.94 7.52C559.34 6.76 559.887 6.16667 560.58 5.74C561.287 5.31333 562.1 5.1 563.02 5.1C563.9 5.1 564.653 5.29333 565.28 5.68C565.907 6.06667 566.387 6.61333 566.72 7.32C567.067 8.02667 567.24 8.87333 567.24 9.86V10.48H559.58V9.42H566.16L565.84 9.68C565.84 8.61333 565.6 7.78667 565.12 7.2C564.653 6.6 563.967 6.3 563.06 6.3C562.38 6.3 561.8 6.46 561.32 6.78C560.853 7.08667 560.5 7.52 560.26 8.08C560.02 8.62667 559.9 9.26667 559.9 10V10.12C559.9 10.9333 560.027 11.62 560.28 12.18C560.547 12.74 560.94 13.1667 561.46 13.46C561.98 13.74 562.6 13.88 563.32 13.88C563.893 13.88 564.447 13.7933 564.98 13.62C565.527 13.4333 566.04 13.1333 566.52 12.72L567.08 13.86C566.64 14.26 566.08 14.58 565.4 14.82C564.72 15.06 564.027 15.18 563.32 15.18ZM570.104 15V6.54H568.184V5.28H570.544L570.104 5.7V4.94C570.104 3.64667 570.424 2.66667 571.064 2C571.718 1.33333 572.718 0.959999 574.064 0.879999L574.844 0.84L574.984 2.08L574.064 2.14C573.518 2.18 573.071 2.3 572.724 2.5C572.378 2.7 572.124 2.98667 571.964 3.36C571.804 3.73333 571.724 4.19333 571.724 4.74V5.58L571.484 5.28H574.524V6.54H571.724V15H570.104ZM580.011 15.18C579.065 15.18 578.245 14.9733 577.551 14.56C576.858 14.1467 576.318 13.5667 575.931 12.82C575.558 12.06 575.371 11.1667 575.371 10.14C575.371 9.11333 575.558 8.22667 575.931 7.48C576.318 6.72 576.858 6.13333 577.551 5.72C578.245 5.30667 579.065 5.1 580.011 5.1C580.958 5.1 581.778 5.30667 582.471 5.72C583.165 6.13333 583.698 6.72 584.071 7.48C584.458 8.22667 584.651 9.11333 584.651 10.14C584.651 11.1667 584.458 12.06 584.071 12.82C583.698 13.5667 583.165 14.1467 582.471 14.56C581.778 14.9733 580.958 15.18 580.011 15.18ZM580.011 13.88C580.931 13.88 581.658 13.56 582.191 12.92C582.738 12.2667 583.011 11.3333 583.011 10.12C583.011 8.92 582.738 8 582.191 7.36C581.658 6.72 580.931 6.4 580.011 6.4C579.105 6.4 578.378 6.72 577.831 7.36C577.285 8 577.011 8.92 577.011 10.12C577.011 11.3333 577.285 12.2667 577.831 12.92C578.378 13.56 579.105 13.88 580.011 13.88ZM587.084 15V5.28H588.664V7.58H588.464C588.691 6.79333 589.084 6.2 589.644 5.8C590.204 5.38667 590.944 5.14667 591.864 5.08L592.444 5.02L592.564 6.42L591.544 6.54C590.638 6.62 589.938 6.91333 589.444 7.42C588.964 7.91333 588.724 8.59333 588.724 9.46V15H587.084ZM598.515 15.18C597.489 15.18 596.602 14.98 595.855 14.58C595.122 14.1667 594.549 13.5867 594.135 12.84C593.735 12.0933 593.535 11.2 593.535 10.16C593.535 9.14667 593.735 8.26667 594.135 7.52C594.535 6.76 595.082 6.16667 595.775 5.74C596.482 5.31333 597.295 5.1 598.215 5.1C599.095 5.1 599.849 5.29333 600.475 5.68C601.102 6.06667 601.582 6.61333 601.915 7.32C602.262 8.02667 602.435 8.87333 602.435 9.86V10.48H594.775V9.42H601.355L601.035 9.68C601.035 8.61333 600.795 7.78667 600.315 7.2C599.849 6.6 599.162 6.3 598.255 6.3C597.575 6.3 596.995 6.46 596.515 6.78C596.049 7.08667 595.695 7.52 595.455 8.08C595.215 8.62667 595.095 9.26667 595.095 10V10.12C595.095 10.9333 595.222 11.62 595.475 12.18C595.742 12.74 596.135 13.1667 596.655 13.46C597.175 13.74 597.795 13.88 598.515 13.88C599.089 13.88 599.642 13.7933 600.175 13.62C600.722 13.4333 601.235 13.1333 601.715 12.72L602.275 13.86C601.835 14.26 601.275 14.58 600.595 14.82C599.915 15.06 599.222 15.18 598.515 15.18ZM609.916 15V5.28H611.496V7.58H611.296C611.523 6.79333 611.916 6.2 612.476 5.8C613.036 5.38667 613.776 5.14667 614.696 5.08L615.276 5.02L615.396 6.42L614.376 6.54C613.47 6.62 612.77 6.91333 612.276 7.42C611.796 7.91333 611.556 8.59333 611.556 9.46V15H609.916ZM621.347 15.18C620.321 15.18 619.434 14.98 618.687 14.58C617.954 14.1667 617.381 13.5867 616.967 12.84C616.567 12.0933 616.367 11.2 616.367 10.16C616.367 9.14667 616.567 8.26667 616.967 7.52C617.367 6.76 617.914 6.16667 618.607 5.74C619.314 5.31333 620.127 5.1 621.047 5.1C621.927 5.1 622.681 5.29333 623.307 5.68C623.934 6.06667 624.414 6.61333 624.747 7.32C625.094 8.02667 625.267 8.87333 625.267 9.86V10.48H617.607V9.42H624.187L623.867 9.68C623.867 8.61333 623.627 7.78667 623.147 7.2C622.681 6.6 621.994 6.3 621.087 6.3C620.407 6.3 619.827 6.46 619.347 6.78C618.881 7.08667 618.527 7.52 618.287 8.08C618.047 8.62667 617.927 9.26667 617.927 10V10.12C617.927 10.9333 618.054 11.62 618.307 12.18C618.574 12.74 618.967 13.1667 619.487 13.46C620.007 13.74 620.627 13.88 621.347 13.88C621.921 13.88 622.474 13.7933 623.007 13.62C623.554 13.4333 624.067 13.1333 624.547 12.72L625.107 13.86C624.667 14.26 624.107 14.58 623.427 14.82C622.747 15.06 622.054 15.18 621.347 15.18ZM631.732 15.18C630.758 15.18 629.918 14.9667 629.212 14.54C628.505 14.1133 627.958 13.52 627.572 12.76C627.198 11.9867 627.012 11.0933 627.012 10.08C627.012 9.05333 627.198 8.16667 627.572 7.42C627.958 6.67333 628.505 6.1 629.212 5.7C629.918 5.3 630.758 5.1 631.732 5.1C632.332 5.1 632.925 5.20667 633.512 5.42C634.098 5.63333 634.585 5.93333 634.972 6.32L634.412 7.5C634.025 7.12667 633.598 6.85333 633.132 6.68C632.678 6.50667 632.245 6.42 631.832 6.42C630.818 6.42 630.038 6.74 629.492 7.38C628.945 8.00667 628.672 8.91333 628.672 10.1C628.672 11.26 628.945 12.18 629.492 12.86C630.038 13.5267 630.818 13.86 631.832 13.86C632.245 13.86 632.678 13.7733 633.132 13.6C633.598 13.4267 634.025 13.1467 634.412 12.76L634.972 13.94C634.585 14.3267 634.092 14.6333 633.492 14.86C632.905 15.0733 632.318 15.18 631.732 15.18ZM640.714 15.18C639.768 15.18 638.948 14.9733 638.254 14.56C637.561 14.1467 637.021 13.5667 636.634 12.82C636.261 12.06 636.074 11.1667 636.074 10.14C636.074 9.11333 636.261 8.22667 636.634 7.48C637.021 6.72 637.561 6.13333 638.254 5.72C638.948 5.30667 639.768 5.1 640.714 5.1C641.661 5.1 642.481 5.30667 643.174 5.72C643.868 6.13333 644.401 6.72 644.774 7.48C645.161 8.22667 645.354 9.11333 645.354 10.14C645.354 11.1667 645.161 12.06 644.774 12.82C644.401 13.5667 643.868 14.1467 643.174 14.56C642.481 14.9733 641.661 15.18 640.714 15.18ZM640.714 13.88C641.634 13.88 642.361 13.56 642.894 12.92C643.441 12.2667 643.714 11.3333 643.714 10.12C643.714 8.92 643.441 8 642.894 7.36C642.361 6.72 641.634 6.4 640.714 6.4C639.808 6.4 639.081 6.72 638.534 7.36C637.988 8 637.714 8.92 637.714 10.12C637.714 11.3333 637.988 12.2667 638.534 12.92C639.081 13.56 639.808 13.88 640.714 13.88ZM647.788 15V5.28H649.368V7.58H649.168C649.394 6.79333 649.788 6.2 650.348 5.8C650.908 5.38667 651.648 5.14667 652.568 5.08L653.148 5.02L653.268 6.42L652.248 6.54C651.341 6.62 650.641 6.91333 650.148 7.42C649.668 7.91333 649.428 8.59333 649.428 9.46V15H647.788ZM658.538 15.18C657.672 15.18 656.912 14.9733 656.258 14.56C655.618 14.1467 655.118 13.5667 654.758 12.82C654.412 12.06 654.238 11.1667 654.238 10.14C654.238 9.1 654.412 8.20667 654.758 7.46C655.118 6.7 655.618 6.12 656.258 5.72C656.912 5.30667 657.672 5.1 658.538 5.1C659.418 5.1 660.172 5.32 660.798 5.76C661.425 6.2 661.845 6.79333 662.058 7.54H661.838V0.899999H663.458V15H661.878V12.68H662.078C661.865 13.44 661.438 14.0467 660.798 14.5C660.172 14.9533 659.418 15.18 658.538 15.18ZM658.878 13.88C659.798 13.88 660.525 13.56 661.058 12.92C661.605 12.2667 661.878 11.34 661.878 10.14C661.878 8.92667 661.605 8 661.058 7.36C660.525 6.72 659.798 6.4 658.878 6.4C657.972 6.4 657.245 6.72 656.698 7.36C656.152 8 655.878 8.92667 655.878 10.14C655.878 11.34 656.152 12.2667 656.698 12.92C657.245 13.56 657.972 13.88 658.878 13.88ZM666.299 2.86V1.04H668.299V2.86H666.299ZM666.499 15V5.28H668.119V15H666.499ZM671.147 15V5.28H672.727V7.44H672.507C672.787 6.66667 673.24 6.08667 673.867 5.7C674.507 5.3 675.24 5.1 676.067 5.1C676.84 5.1 677.48 5.24 677.987 5.52C678.507 5.78667 678.894 6.20667 679.147 6.78C679.4 7.35333 679.527 8.07333 679.527 8.94V15H677.907V9.04C677.907 8.44 677.827 7.94667 677.667 7.56C677.52 7.17333 677.28 6.88667 676.947 6.7C676.627 6.51333 676.207 6.42 675.687 6.42C675.1 6.42 674.587 6.54667 674.147 6.8C673.707 7.05333 673.367 7.40667 673.127 7.86C672.887 8.31333 672.767 8.84667 672.767 9.46V15H671.147ZM686.814 18.78C685.974 18.78 685.181 18.6667 684.434 18.44C683.701 18.2267 683.047 17.9 682.474 17.46L683.014 16.28C683.414 16.56 683.807 16.7867 684.194 16.96C684.594 17.1467 685.001 17.28 685.414 17.36C685.841 17.44 686.281 17.48 686.734 17.48C687.681 17.48 688.394 17.2267 688.874 16.72C689.367 16.2133 689.614 15.48 689.614 14.52V12.26H689.814C689.614 13.0333 689.187 13.6467 688.534 14.1C687.894 14.5533 687.141 14.78 686.274 14.78C685.381 14.78 684.607 14.58 683.954 14.18C683.301 13.7667 682.794 13.1933 682.434 12.46C682.087 11.7267 681.914 10.88 681.914 9.92C681.914 8.96 682.087 8.12 682.434 7.4C682.794 6.66667 683.301 6.1 683.954 5.7C684.607 5.3 685.381 5.1 686.274 5.1C687.154 5.1 687.914 5.32667 688.554 5.78C689.194 6.22 689.607 6.82 689.794 7.58H689.614V5.28H691.194V14.3C691.194 15.2867 691.027 16.1133 690.694 16.78C690.374 17.4467 689.887 17.9467 689.234 18.28C688.581 18.6133 687.774 18.78 686.814 18.78ZM686.574 13.46C687.507 13.46 688.247 13.14 688.794 12.5C689.341 11.86 689.614 11 689.614 9.92C689.614 8.84 689.341 7.98667 688.794 7.36C688.247 6.72 687.507 6.4 686.574 6.4C685.654 6.4 684.921 6.72 684.374 7.36C683.827 7.98667 683.554 8.84 683.554 9.92C683.554 11 683.827 11.86 684.374 12.5C684.921 13.14 685.654 13.46 686.574 13.46ZM702.23 15L698.05 5.28H699.81L703.29 13.8H702.75L706.29 5.28H707.95L703.75 15H702.23ZM709.463 2.86V1.04H711.463V2.86H709.463ZM709.663 15V5.28H711.283V15H709.663ZM718.011 15.18C717.144 15.18 716.384 14.9733 715.731 14.56C715.091 14.1467 714.591 13.5667 714.231 12.82C713.884 12.06 713.711 11.1667 713.711 10.14C713.711 9.1 713.884 8.20667 714.231 7.46C714.591 6.7 715.091 6.12 715.731 5.72C716.384 5.30667 717.144 5.1 718.011 5.1C718.891 5.1 719.644 5.32 720.271 5.76C720.898 6.2 721.318 6.79333 721.531 7.54H721.311V0.899999H722.931V15H721.351V12.68H721.551C721.338 13.44 720.911 14.0467 720.271 14.5C719.644 14.9533 718.891 15.18 718.011 15.18ZM718.351 13.88C719.271 13.88 719.998 13.56 720.531 12.92C721.078 12.2667 721.351 11.34 721.351 10.14C721.351 8.92667 721.078 8 720.531 7.36C719.998 6.72 719.271 6.4 718.351 6.4C717.444 6.4 716.718 6.72 716.171 7.36C715.624 8 715.351 8.92667 715.351 10.14C715.351 11.34 715.624 12.2667 716.171 12.92C716.718 13.56 717.444 13.88 718.351 13.88ZM730.351 15.18C729.325 15.18 728.438 14.98 727.691 14.58C726.958 14.1667 726.385 13.5867 725.971 12.84C725.571 12.0933 725.371 11.2 725.371 10.16C725.371 9.14667 725.571 8.26667 725.971 7.52C726.371 6.76 726.918 6.16667 727.611 5.74C728.318 5.31333 729.131 5.1 730.051 5.1C730.931 5.1 731.685 5.29333 732.311 5.68C732.938 6.06667 733.418 6.61333 733.751 7.32C734.098 8.02667 734.271 8.87333 734.271 9.86V10.48H726.611V9.42H733.191L732.871 9.68C732.871 8.61333 732.631 7.78667 732.151 7.2C731.685 6.6 730.998 6.3 730.091 6.3C729.411 6.3 728.831 6.46 728.351 6.78C727.885 7.08667 727.531 7.52 727.291 8.08C727.051 8.62667 726.931 9.26667 726.931 10V10.12C726.931 10.9333 727.058 11.62 727.311 12.18C727.578 12.74 727.971 13.1667 728.491 13.46C729.011 13.74 729.631 13.88 730.351 13.88C730.925 13.88 731.478 13.7933 732.011 13.62C732.558 13.4333 733.071 13.1333 733.551 12.72L734.111 13.86C733.671 14.26 733.111 14.58 732.431 14.82C731.751 15.06 731.058 15.18 730.351 15.18ZM740.656 15.18C739.709 15.18 738.889 14.9733 738.196 14.56C737.502 14.1467 736.962 13.5667 736.576 12.82C736.202 12.06 736.016 11.1667 736.016 10.14C736.016 9.11333 736.202 8.22667 736.576 7.48C736.962 6.72 737.502 6.13333 738.196 5.72C738.889 5.30667 739.709 5.1 740.656 5.1C741.602 5.1 742.422 5.30667 743.116 5.72C743.809 6.13333 744.342 6.72 744.716 7.48C745.102 8.22667 745.296 9.11333 745.296 10.14C745.296 11.1667 745.102 12.06 744.716 12.82C744.342 13.5667 743.809 14.1467 743.116 14.56C742.422 14.9733 741.602 15.18 740.656 15.18ZM740.656 13.88C741.576 13.88 742.302 13.56 742.836 12.92C743.382 12.2667 743.656 11.3333 743.656 10.12C743.656 8.92 743.382 8 742.836 7.36C742.302 6.72 741.576 6.4 740.656 6.4C739.749 6.4 739.022 6.72 738.476 7.36C737.929 8 737.656 8.92 737.656 10.12C737.656 11.3333 737.929 12.2667 738.476 12.92C739.022 13.56 739.749 13.88 740.656 13.88ZM747.02 15V12.96H749.06V15H747.02ZM0.766184 48V33.9H2.40618V48H0.766184ZM14.5001 48.18C13.6334 48.18 12.8734 47.9733 12.2201 47.56C11.5801 47.1467 11.0801 46.5667 10.7201 45.82C10.3734 45.06 10.2001 44.1667 10.2001 43.14C10.2001 42.1 10.3734 41.2067 10.7201 40.46C11.0801 39.7 11.5801 39.12 12.2201 38.72C12.8734 38.3067 13.6334 38.1 14.5001 38.1C15.3801 38.1 16.1334 38.32 16.7601 38.76C17.3868 39.2 17.8068 39.7933 18.0201 40.54H17.8001V33.9H19.4201V48H17.8401V45.68H18.0401C17.8268 46.44 17.4001 47.0467 16.7601 47.5C16.1334 47.9533 15.3801 48.18 14.5001 48.18ZM14.8401 46.88C15.7601 46.88 16.4868 46.56 17.0201 45.92C17.5668 45.2667 17.8401 44.34 17.8401 43.14C17.8401 41.9267 17.5668 41 17.0201 40.36C16.4868 39.72 15.7601 39.4 14.8401 39.4C13.9334 39.4 13.2068 39.72 12.6601 40.36C12.1134 41 11.8401 41.9267 11.8401 43.14C11.8401 44.34 12.1134 45.2667 12.6601 45.92C13.2068 46.56 13.9334 46.88 14.8401 46.88ZM26.5002 48.18C25.5536 48.18 24.7336 47.9733 24.0402 47.56C23.3469 47.1467 22.8069 46.5667 22.4202 45.82C22.0469 45.06 21.8602 44.1667 21.8602 43.14C21.8602 42.1133 22.0469 41.2267 22.4202 40.48C22.8069 39.72 23.3469 39.1333 24.0402 38.72C24.7336 38.3067 25.5536 38.1 26.5002 38.1C27.4469 38.1 28.2669 38.3067 28.9602 38.72C29.6536 39.1333 30.1869 39.72 30.5602 40.48C30.9469 41.2267 31.1402 42.1133 31.1402 43.14C31.1402 44.1667 30.9469 45.06 30.5602 45.82C30.1869 46.5667 29.6536 47.1467 28.9602 47.56C28.2669 47.9733 27.4469 48.18 26.5002 48.18ZM26.5002 46.88C27.4202 46.88 28.1469 46.56 28.6802 45.92C29.2269 45.2667 29.5002 44.3333 29.5002 43.12C29.5002 41.92 29.2269 41 28.6802 40.36C28.1469 39.72 27.4202 39.4 26.5002 39.4C25.5936 39.4 24.8669 39.72 24.3202 40.36C23.7736 41 23.5002 41.92 23.5002 43.12C23.5002 44.3333 23.7736 45.2667 24.3202 45.92C24.8669 46.56 25.5936 46.88 26.5002 46.88ZM38.7102 48V38.28H40.2902V40.44H40.0702C40.3502 39.6667 40.8036 39.0867 41.4302 38.7C42.0702 38.3 42.8036 38.1 43.6302 38.1C44.4036 38.1 45.0436 38.24 45.5502 38.52C46.0702 38.7867 46.4569 39.2067 46.7102 39.78C46.9636 40.3533 47.0902 41.0733 47.0902 41.94V48H45.4702V42.04C45.4702 41.44 45.3902 40.9467 45.2302 40.56C45.0836 40.1733 44.8436 39.8867 44.5102 39.7C44.1902 39.5133 43.7702 39.42 43.2502 39.42C42.6636 39.42 42.1502 39.5467 41.7102 39.8C41.2702 40.0533 40.9302 40.4067 40.6902 40.86C40.4502 41.3133 40.3302 41.8467 40.3302 42.46V48H38.7102ZM54.1174 48.18C53.1708 48.18 52.3508 47.9733 51.6574 47.56C50.9641 47.1467 50.4241 46.5667 50.0374 45.82C49.6641 45.06 49.4774 44.1667 49.4774 43.14C49.4774 42.1133 49.6641 41.2267 50.0374 40.48C50.4241 39.72 50.9641 39.1333 51.6574 38.72C52.3508 38.3067 53.1708 38.1 54.1174 38.1C55.0641 38.1 55.8841 38.3067 56.5774 38.72C57.2708 39.1333 57.8041 39.72 58.1774 40.48C58.5641 41.2267 58.7574 42.1133 58.7574 43.14C58.7574 44.1667 58.5641 45.06 58.1774 45.82C57.8041 46.5667 57.2708 47.1467 56.5774 47.56C55.8841 47.9733 55.0641 48.18 54.1174 48.18ZM54.1174 46.88C55.0374 46.88 55.7641 46.56 56.2974 45.92C56.8441 45.2667 57.1174 44.3333 57.1174 43.12C57.1174 41.92 56.8441 41 56.2974 40.36C55.7641 39.72 55.0374 39.4 54.1174 39.4C53.2108 39.4 52.4841 39.72 51.9374 40.36C51.3908 41 51.1174 41.92 51.1174 43.12C51.1174 44.3333 51.3908 45.2667 51.9374 45.92C52.4841 46.56 53.2108 46.88 54.1174 46.88ZM64.9931 48.18C63.8464 48.18 62.9864 47.8733 62.4131 47.26C61.8397 46.6467 61.5531 45.7733 61.5531 44.64V39.54H59.6531V38.28H61.5531V35.3H63.1731V38.28H66.2531V39.54H63.1731V44.48C63.1731 45.24 63.3331 45.82 63.6531 46.22C63.9731 46.6067 64.4931 46.8 65.2131 46.8C65.4264 46.8 65.6397 46.7733 65.8531 46.72C66.0664 46.6667 66.2597 46.6133 66.4331 46.56L66.7131 47.8C66.5397 47.8933 66.2864 47.98 65.9531 48.06C65.6197 48.14 65.2997 48.18 64.9931 48.18ZM77.262 48.18C76.3153 48.18 75.4953 47.9733 74.802 47.56C74.1086 47.1467 73.5686 46.5667 73.182 45.82C72.8086 45.06 72.622 44.1667 72.622 43.14C72.622 42.1133 72.8086 41.2267 73.182 40.48C73.5686 39.72 74.1086 39.1333 74.802 38.72C75.4953 38.3067 76.3153 38.1 77.262 38.1C78.2086 38.1 79.0286 38.3067 79.722 38.72C80.4153 39.1333 80.9486 39.72 81.322 40.48C81.7086 41.2267 81.902 42.1133 81.902 43.14C81.902 44.1667 81.7086 45.06 81.322 45.82C80.9486 46.5667 80.4153 47.1467 79.722 47.56C79.0286 47.9733 78.2086 48.18 77.262 48.18ZM77.262 46.88C78.182 46.88 78.9086 46.56 79.442 45.92C79.9886 45.2667 80.262 44.3333 80.262 43.12C80.262 41.92 79.9886 41 79.442 40.36C78.9086 39.72 78.182 39.4 77.262 39.4C76.3553 39.4 75.6286 39.72 75.082 40.36C74.5353 41 74.262 41.92 74.262 43.12C74.262 44.3333 74.5353 45.2667 75.082 45.92C75.6286 46.56 76.3553 46.88 77.262 46.88ZM86.7785 48L83.1585 38.28H84.8585L87.8385 46.8H87.3585L90.4385 38.28H91.8185L94.8385 46.8H94.3785L97.3985 38.28H99.0185L95.3785 48H93.8385L90.6585 39.26H91.5185L88.3385 48H86.7785ZM101.015 48V38.28H102.595V40.44H102.375C102.655 39.6667 103.108 39.0867 103.735 38.7C104.375 38.3 105.108 38.1 105.935 38.1C106.708 38.1 107.348 38.24 107.855 38.52C108.375 38.7867 108.762 39.2067 109.015 39.78C109.268 40.3533 109.395 41.0733 109.395 41.94V48H107.775V42.04C107.775 41.44 107.695 40.9467 107.535 40.56C107.388 40.1733 107.148 39.8867 106.815 39.7C106.495 39.5133 106.075 39.42 105.555 39.42C104.968 39.42 104.455 39.5467 104.015 39.8C103.575 40.0533 103.235 40.4067 102.995 40.86C102.755 41.3133 102.635 41.8467 102.635 42.46V48H101.015ZM120.579 48.18C119.912 48.18 119.312 48.0533 118.779 47.8C118.259 47.5333 117.846 47.1733 117.539 46.72C117.232 46.2667 117.079 45.76 117.079 45.2C117.079 44.48 117.259 43.9133 117.619 43.5C117.992 43.0867 118.599 42.7933 119.439 42.62C120.292 42.4467 121.452 42.36 122.919 42.36H123.819V43.42H122.939C122.126 43.42 121.446 43.4467 120.899 43.5C120.352 43.5533 119.919 43.6467 119.599 43.78C119.279 43.9133 119.052 44.0867 118.919 44.3C118.786 44.5133 118.719 44.78 118.719 45.1C118.719 45.6467 118.906 46.0933 119.279 46.44C119.666 46.7867 120.186 46.96 120.839 46.96C121.372 46.96 121.839 46.8333 122.239 46.58C122.652 46.3267 122.972 45.98 123.199 45.54C123.439 45.1 123.559 44.5933 123.559 44.02V41.74C123.559 40.9133 123.392 40.32 123.059 39.96C122.726 39.5867 122.179 39.4 121.419 39.4C120.832 39.4 120.266 39.4867 119.719 39.66C119.172 39.82 118.612 40.0867 118.039 40.46L117.479 39.28C117.826 39.04 118.219 38.8333 118.659 38.66C119.099 38.4733 119.559 38.3333 120.039 38.24C120.519 38.1467 120.979 38.1 121.419 38.1C122.259 38.1 122.952 38.24 123.499 38.52C124.046 38.7867 124.452 39.2 124.719 39.76C124.986 40.3067 125.119 41.0133 125.119 41.88V48H123.599V45.74H123.779C123.672 46.2467 123.466 46.68 123.159 47.04C122.866 47.4 122.499 47.68 122.059 47.88C121.619 48.08 121.126 48.18 120.579 48.18ZM128.124 48V38.28H129.704V40.44H129.484C129.764 39.6667 130.218 39.0867 130.844 38.7C131.484 38.3 132.218 38.1 133.044 38.1C133.818 38.1 134.458 38.24 134.964 38.52C135.484 38.7867 135.871 39.2067 136.124 39.78C136.378 40.3533 136.504 41.0733 136.504 41.94V48H134.884V42.04C134.884 41.44 134.804 40.9467 134.644 40.56C134.498 40.1733 134.258 39.8867 133.924 39.7C133.604 39.5133 133.184 39.42 132.664 39.42C132.078 39.42 131.564 39.5467 131.124 39.8C130.684 40.0533 130.344 40.4067 130.104 40.86C129.864 41.3133 129.744 41.8467 129.744 42.46V48H128.124ZM140.514 51.6L142.334 47.5V48.2L138.074 38.28H139.834L143.314 46.8H142.774L146.294 38.28H147.994L142.214 51.6H140.514ZM157.784 48.18C156.797 48.18 156.051 47.8867 155.544 47.3C155.051 46.7133 154.804 45.8733 154.804 44.78V33.9H156.424V44.66C156.424 45.1267 156.484 45.52 156.604 45.84C156.737 46.16 156.931 46.4 157.184 46.56C157.437 46.72 157.751 46.8 158.124 46.8C158.284 46.8 158.437 46.7933 158.584 46.78C158.744 46.7533 158.891 46.72 159.024 46.68L158.984 48.04C158.771 48.08 158.564 48.1133 158.364 48.14C158.177 48.1667 157.984 48.18 157.784 48.18ZM160.522 35.86V34.04H162.522V35.86H160.522ZM160.722 48V38.28H162.342V48H160.722ZM169.49 48.18C168.517 48.18 167.677 47.9667 166.97 47.54C166.264 47.1133 165.717 46.52 165.33 45.76C164.957 44.9867 164.77 44.0933 164.77 43.08C164.77 42.0533 164.957 41.1667 165.33 40.42C165.717 39.6733 166.264 39.1 166.97 38.7C167.677 38.3 168.517 38.1 169.49 38.1C170.09 38.1 170.684 38.2067 171.27 38.42C171.857 38.6333 172.344 38.9333 172.73 39.32L172.17 40.5C171.784 40.1267 171.357 39.8533 170.89 39.68C170.437 39.5067 170.004 39.42 169.59 39.42C168.577 39.42 167.797 39.74 167.25 40.38C166.704 41.0067 166.43 41.9133 166.43 43.1C166.43 44.26 166.704 45.18 167.25 45.86C167.797 46.5267 168.577 46.86 169.59 46.86C170.004 46.86 170.437 46.7733 170.89 46.6C171.357 46.4267 171.784 46.1467 172.17 45.76L172.73 46.94C172.344 47.3267 171.85 47.6333 171.25 47.86C170.664 48.0733 170.077 48.18 169.49 48.18ZM178.813 48.18C177.786 48.18 176.9 47.98 176.153 47.58C175.42 47.1667 174.846 46.5867 174.433 45.84C174.033 45.0933 173.833 44.2 173.833 43.16C173.833 42.1467 174.033 41.2667 174.433 40.52C174.833 39.76 175.38 39.1667 176.073 38.74C176.78 38.3133 177.593 38.1 178.513 38.1C179.393 38.1 180.146 38.2933 180.773 38.68C181.4 39.0667 181.88 39.6133 182.213 40.32C182.56 41.0267 182.733 41.8733 182.733 42.86V43.48H175.073V42.42H181.653L181.333 42.68C181.333 41.6133 181.093 40.7867 180.613 40.2C180.146 39.6 179.46 39.3 178.553 39.3C177.873 39.3 177.293 39.46 176.813 39.78C176.346 40.0867 175.993 40.52 175.753 41.08C175.513 41.6267 175.393 42.2667 175.393 43V43.12C175.393 43.9333 175.52 44.62 175.773 45.18C176.04 45.74 176.433 46.1667 176.953 46.46C177.473 46.74 178.093 46.88 178.813 46.88C179.386 46.88 179.94 46.7933 180.473 46.62C181.02 46.4333 181.533 46.1333 182.013 45.72L182.573 46.86C182.133 47.26 181.573 47.58 180.893 47.82C180.213 48.06 179.52 48.18 178.813 48.18ZM185.077 48V38.28H186.657V40.44H186.437C186.717 39.6667 187.171 39.0867 187.797 38.7C188.437 38.3 189.171 38.1 189.997 38.1C190.771 38.1 191.411 38.24 191.917 38.52C192.437 38.7867 192.824 39.2067 193.077 39.78C193.331 40.3533 193.457 41.0733 193.457 41.94V48H191.837V42.04C191.837 41.44 191.757 40.9467 191.597 40.56C191.451 40.1733 191.211 39.8867 190.877 39.7C190.557 39.5133 190.137 39.42 189.617 39.42C189.031 39.42 188.517 39.5467 188.077 39.8C187.637 40.0533 187.297 40.4067 187.057 40.86C186.817 41.3133 186.697 41.8467 186.697 42.46V48H185.077ZM199.725 48.18C199.218 48.18 198.725 48.1267 198.245 48.02C197.778 47.9267 197.338 47.7933 196.925 47.62C196.525 47.4333 196.178 47.2133 195.885 46.96L196.405 45.82C196.725 46.0733 197.071 46.2867 197.445 46.46C197.818 46.62 198.198 46.74 198.585 46.82C198.971 46.9 199.365 46.94 199.765 46.94C200.525 46.94 201.098 46.8 201.485 46.52C201.871 46.24 202.065 45.86 202.065 45.38C202.065 45.0067 201.938 44.7133 201.685 44.5C201.431 44.2733 201.031 44.1 200.485 43.98L198.665 43.58C197.825 43.4067 197.198 43.1067 196.785 42.68C196.385 42.2533 196.185 41.7 196.185 41.02C196.185 40.42 196.338 39.9067 196.645 39.48C196.965 39.04 197.411 38.7 197.985 38.46C198.558 38.22 199.225 38.1 199.985 38.1C200.438 38.1 200.871 38.1467 201.285 38.24C201.698 38.3333 202.085 38.4733 202.445 38.66C202.818 38.8333 203.138 39.0533 203.405 39.32L202.865 40.46C202.611 40.22 202.325 40.02 202.005 39.86C201.685 39.6867 201.351 39.56 201.005 39.48C200.671 39.3867 200.331 39.34 199.985 39.34C199.238 39.34 198.671 39.4867 198.285 39.78C197.898 40.0733 197.705 40.46 197.705 40.94C197.705 41.3133 197.825 41.62 198.065 41.86C198.305 42.1 198.678 42.2733 199.185 42.38L201.005 42.76C201.871 42.9467 202.518 43.2467 202.945 43.66C203.385 44.06 203.605 44.6067 203.605 45.3C203.605 45.8867 203.445 46.4 203.125 46.84C202.805 47.2667 202.351 47.6 201.765 47.84C201.191 48.0667 200.511 48.18 199.725 48.18ZM210.454 48.18C209.427 48.18 208.54 47.98 207.794 47.58C207.06 47.1667 206.487 46.5867 206.074 45.84C205.674 45.0933 205.474 44.2 205.474 43.16C205.474 42.1467 205.674 41.2667 206.074 40.52C206.474 39.76 207.02 39.1667 207.714 38.74C208.42 38.3133 209.234 38.1 210.154 38.1C211.034 38.1 211.787 38.2933 212.414 38.68C213.04 39.0667 213.52 39.6133 213.854 40.32C214.2 41.0267 214.374 41.8733 214.374 42.86V43.48H206.714V42.42H213.294L212.974 42.68C212.974 41.6133 212.734 40.7867 212.254 40.2C211.787 39.6 211.1 39.3 210.194 39.3C209.514 39.3 208.934 39.46 208.454 39.78C207.987 40.0867 207.634 40.52 207.394 41.08C207.154 41.6267 207.034 42.2667 207.034 43V43.12C207.034 43.9333 207.16 44.62 207.414 45.18C207.68 45.74 208.074 46.1667 208.594 46.46C209.114 46.74 209.734 46.88 210.454 46.88C211.027 46.88 211.58 46.7933 212.114 46.62C212.66 46.4333 213.174 46.1333 213.654 45.72L214.214 46.86C213.774 47.26 213.214 47.58 212.534 47.82C211.854 48.06 211.16 48.18 210.454 48.18ZM217.298 50.28L216.538 49.7C216.778 49.4467 216.958 49.2067 217.078 48.98C217.211 48.7667 217.298 48.5467 217.338 48.32C217.391 48.1067 217.418 47.8867 217.418 47.66L217.778 48H216.458V45.96H218.498V47.4C218.498 47.76 218.458 48.1 218.378 48.42C218.311 48.7533 218.191 49.0733 218.018 49.38C217.845 49.6867 217.605 49.9867 217.298 50.28ZM229.466 48.18C228.799 48.18 228.199 48.0533 227.666 47.8C227.146 47.5333 226.732 47.1733 226.426 46.72C226.119 46.2667 225.966 45.76 225.966 45.2C225.966 44.48 226.146 43.9133 226.506 43.5C226.879 43.0867 227.486 42.7933 228.326 42.62C229.179 42.4467 230.339 42.36 231.806 42.36H232.706V43.42H231.826C231.012 43.42 230.332 43.4467 229.786 43.5C229.239 43.5533 228.806 43.6467 228.486 43.78C228.166 43.9133 227.939 44.0867 227.806 44.3C227.672 44.5133 227.606 44.78 227.606 45.1C227.606 45.6467 227.792 46.0933 228.166 46.44C228.552 46.7867 229.072 46.96 229.726 46.96C230.259 46.96 230.726 46.8333 231.126 46.58C231.539 46.3267 231.859 45.98 232.086 45.54C232.326 45.1 232.446 44.5933 232.446 44.02V41.74C232.446 40.9133 232.279 40.32 231.946 39.96C231.612 39.5867 231.066 39.4 230.306 39.4C229.719 39.4 229.152 39.4867 228.606 39.66C228.059 39.82 227.499 40.0867 226.926 40.46L226.366 39.28C226.712 39.04 227.106 38.8333 227.546 38.66C227.986 38.4733 228.446 38.3333 228.926 38.24C229.406 38.1467 229.866 38.1 230.306 38.1C231.146 38.1 231.839 38.24 232.386 38.52C232.932 38.7867 233.339 39.2 233.606 39.76C233.872 40.3067 234.006 41.0133 234.006 41.88V48H232.486V45.74H232.666C232.559 46.2467 232.352 46.68 232.046 47.04C231.752 47.4 231.386 47.68 230.946 47.88C230.506 48.08 230.012 48.18 229.466 48.18ZM239.991 48.18C239.004 48.18 238.258 47.8867 237.751 47.3C237.258 46.7133 237.011 45.8733 237.011 44.78V33.9H238.631V44.66C238.631 45.1267 238.691 45.52 238.811 45.84C238.944 46.16 239.138 46.4 239.391 46.56C239.644 46.72 239.958 46.8 240.331 46.8C240.491 46.8 240.644 46.7933 240.791 46.78C240.951 46.7533 241.098 46.72 241.231 46.68L241.191 48.04C240.978 48.08 240.771 48.1133 240.571 48.14C240.384 48.1667 240.191 48.18 239.991 48.18ZM245.909 48.18C244.922 48.18 244.176 47.8867 243.669 47.3C243.176 46.7133 242.929 45.8733 242.929 44.78V33.9H244.549V44.66C244.549 45.1267 244.609 45.52 244.729 45.84C244.862 46.16 245.056 46.4 245.309 46.56C245.562 46.72 245.876 46.8 246.249 46.8C246.409 46.8 246.562 46.7933 246.709 46.78C246.869 46.7533 247.016 46.72 247.149 46.68L247.109 48.04C246.896 48.08 246.689 48.1133 246.489 48.14C246.302 48.1667 246.109 48.18 245.909 48.18ZM254.024 48V38.28H255.604V40.44H255.384C255.544 39.9467 255.777 39.5267 256.084 39.18C256.404 38.82 256.777 38.5533 257.204 38.38C257.644 38.1933 258.124 38.1 258.644 38.1C259.47 38.1 260.137 38.3 260.644 38.7C261.164 39.0867 261.51 39.6933 261.684 40.52H261.384C261.624 39.7733 262.05 39.1867 262.664 38.76C263.29 38.32 264.017 38.1 264.844 38.1C265.577 38.1 266.177 38.24 266.644 38.52C267.124 38.8 267.484 39.2267 267.724 39.8C267.964 40.36 268.084 41.0733 268.084 41.94V48H266.464V42.02C266.464 41.1267 266.31 40.4733 266.004 40.06C265.697 39.6333 265.177 39.42 264.444 39.42C263.924 39.42 263.464 39.5467 263.064 39.8C262.677 40.0533 262.377 40.4133 262.164 40.88C261.964 41.3333 261.864 41.8733 261.864 42.5V48H260.244V42.02C260.244 41.1267 260.084 40.4733 259.764 40.06C259.457 39.6333 258.944 39.42 258.224 39.42C257.69 39.42 257.23 39.5467 256.844 39.8C256.457 40.0533 256.157 40.4133 255.944 40.88C255.744 41.3333 255.644 41.8733 255.644 42.5V48H254.024ZM274.553 48.18C273.766 48.18 273.113 48.04 272.593 47.76C272.086 47.4667 271.699 47.0333 271.433 46.46C271.179 45.8867 271.053 45.1733 271.053 44.32V38.28H272.673V44.3C272.673 44.8733 272.746 45.3533 272.893 45.74C273.053 46.1133 273.299 46.3933 273.633 46.58C273.966 46.7533 274.379 46.84 274.873 46.84C275.433 46.84 275.919 46.7133 276.333 46.46C276.746 46.2067 277.073 45.8533 277.313 45.4C277.553 44.9467 277.673 44.4133 277.673 43.8V38.28H279.293V48H277.713V45.76H277.973C277.706 46.5467 277.266 47.1467 276.653 47.56C276.053 47.9733 275.353 48.18 274.553 48.18ZM285.604 48.18C285.097 48.18 284.604 48.1267 284.124 48.02C283.657 47.9267 283.217 47.7933 282.804 47.62C282.404 47.4333 282.057 47.2133 281.764 46.96L282.284 45.82C282.604 46.0733 282.95 46.2867 283.324 46.46C283.697 46.62 284.077 46.74 284.464 46.82C284.85 46.9 285.244 46.94 285.644 46.94C286.404 46.94 286.977 46.8 287.364 46.52C287.75 46.24 287.944 45.86 287.944 45.38C287.944 45.0067 287.817 44.7133 287.564 44.5C287.31 44.2733 286.91 44.1 286.364 43.98L284.544 43.58C283.704 43.4067 283.077 43.1067 282.664 42.68C282.264 42.2533 282.064 41.7 282.064 41.02C282.064 40.42 282.217 39.9067 282.524 39.48C282.844 39.04 283.29 38.7 283.864 38.46C284.437 38.22 285.104 38.1 285.864 38.1C286.317 38.1 286.75 38.1467 287.164 38.24C287.577 38.3333 287.964 38.4733 288.324 38.66C288.697 38.8333 289.017 39.0533 289.284 39.32L288.744 40.46C288.49 40.22 288.204 40.02 287.884 39.86C287.564 39.6867 287.23 39.56 286.884 39.48C286.55 39.3867 286.21 39.34 285.864 39.34C285.117 39.34 284.55 39.4867 284.164 39.78C283.777 40.0733 283.584 40.46 283.584 40.94C283.584 41.3133 283.704 41.62 283.944 41.86C284.184 42.1 284.557 42.2733 285.064 42.38L286.884 42.76C287.75 42.9467 288.397 43.2467 288.824 43.66C289.264 44.06 289.484 44.6067 289.484 45.3C289.484 45.8867 289.324 46.4 289.004 46.84C288.684 47.2667 288.23 47.6 287.644 47.84C287.07 48.0667 286.39 48.18 285.604 48.18ZM291.752 35.86V34.04H293.752V35.86H291.752ZM291.952 48V38.28H293.572V48H291.952ZM300.721 48.18C299.748 48.18 298.908 47.9667 298.201 47.54C297.494 47.1133 296.948 46.52 296.561 45.76C296.188 44.9867 296.001 44.0933 296.001 43.08C296.001 42.0533 296.188 41.1667 296.561 40.42C296.948 39.6733 297.494 39.1 298.201 38.7C298.908 38.3 299.748 38.1 300.721 38.1C301.321 38.1 301.914 38.2067 302.501 38.42C303.088 38.6333 303.574 38.9333 303.961 39.32L303.401 40.5C303.014 40.1267 302.588 39.8533 302.121 39.68C301.668 39.5067 301.234 39.42 300.821 39.42C299.808 39.42 299.028 39.74 298.481 40.38C297.934 41.0067 297.661 41.9133 297.661 43.1C297.661 44.26 297.934 45.18 298.481 45.86C299.028 46.5267 299.808 46.86 300.821 46.86C301.234 46.86 301.668 46.7733 302.121 46.6C302.588 46.4267 303.014 46.1467 303.401 45.76L303.961 46.94C303.574 47.3267 303.081 47.6333 302.481 47.86C301.894 48.0733 301.308 48.18 300.721 48.18ZM314.055 48.18C313.389 48.18 312.789 48.0533 312.255 47.8C311.735 47.5333 311.322 47.1733 311.015 46.72C310.709 46.2667 310.555 45.76 310.555 45.2C310.555 44.48 310.735 43.9133 311.095 43.5C311.469 43.0867 312.075 42.7933 312.915 42.62C313.769 42.4467 314.929 42.36 316.395 42.36H317.295V43.42H316.415C315.602 43.42 314.922 43.4467 314.375 43.5C313.829 43.5533 313.395 43.6467 313.075 43.78C312.755 43.9133 312.529 44.0867 312.395 44.3C312.262 44.5133 312.195 44.78 312.195 45.1C312.195 45.6467 312.382 46.0933 312.755 46.44C313.142 46.7867 313.662 46.96 314.315 46.96C314.849 46.96 315.315 46.8333 315.715 46.58C316.129 46.3267 316.449 45.98 316.675 45.54C316.915 45.1 317.035 44.5933 317.035 44.02V41.74C317.035 40.9133 316.869 40.32 316.535 39.96C316.202 39.5867 315.655 39.4 314.895 39.4C314.309 39.4 313.742 39.4867 313.195 39.66C312.649 39.82 312.089 40.0867 311.515 40.46L310.955 39.28C311.302 39.04 311.695 38.8333 312.135 38.66C312.575 38.4733 313.035 38.3333 313.515 38.24C313.995 38.1467 314.455 38.1 314.895 38.1C315.735 38.1 316.429 38.24 316.975 38.52C317.522 38.7867 317.929 39.2 318.195 39.76C318.462 40.3067 318.595 41.0133 318.595 41.88V48H317.075V45.74H317.255C317.149 46.2467 316.942 46.68 316.635 47.04C316.342 47.4 315.975 47.68 315.535 47.88C315.095 48.08 314.602 48.18 314.055 48.18ZM321.601 48V38.28H323.181V40.44H322.961C323.241 39.6667 323.694 39.0867 324.321 38.7C324.961 38.3 325.694 38.1 326.521 38.1C327.294 38.1 327.934 38.24 328.441 38.52C328.961 38.7867 329.348 39.2067 329.601 39.78C329.854 40.3533 329.981 41.0733 329.981 41.94V48H328.361V42.04C328.361 41.44 328.281 40.9467 328.121 40.56C327.974 40.1733 327.734 39.8867 327.401 39.7C327.081 39.5133 326.661 39.42 326.141 39.42C325.554 39.42 325.041 39.5467 324.601 39.8C324.161 40.0533 323.821 40.4067 323.581 40.86C323.341 41.3133 323.221 41.8467 323.221 42.46V48H321.601ZM336.668 48.18C335.801 48.18 335.041 47.9733 334.388 47.56C333.748 47.1467 333.248 46.5667 332.888 45.82C332.541 45.06 332.368 44.1667 332.368 43.14C332.368 42.1 332.541 41.2067 332.888 40.46C333.248 39.7 333.748 39.12 334.388 38.72C335.041 38.3067 335.801 38.1 336.668 38.1C337.548 38.1 338.301 38.32 338.928 38.76C339.555 39.2 339.975 39.7933 340.188 40.54H339.968V33.9H341.588V48H340.008V45.68H340.208C339.995 46.44 339.568 47.0467 338.928 47.5C338.301 47.9533 337.548 48.18 336.668 48.18ZM337.008 46.88C337.928 46.88 338.655 46.56 339.188 45.92C339.735 45.2667 340.008 44.34 340.008 43.14C340.008 41.9267 339.735 41 339.188 40.36C338.655 39.72 337.928 39.4 337.008 39.4C336.101 39.4 335.375 39.72 334.828 40.36C334.281 41 334.008 41.9267 334.008 43.14C334.008 44.34 334.281 45.2667 334.828 45.92C335.375 46.56 336.101 46.88 337.008 46.88ZM352.745 48.18C351.758 48.18 351.012 47.8867 350.505 47.3C350.012 46.7133 349.765 45.8733 349.765 44.78V33.9H351.385V44.66C351.385 45.1267 351.445 45.52 351.565 45.84C351.698 46.16 351.892 46.4 352.145 46.56C352.398 46.72 352.712 46.8 353.085 46.8C353.245 46.8 353.398 46.7933 353.545 46.78C353.705 46.7533 353.852 46.72 353.985 46.68L353.945 48.04C353.732 48.08 353.525 48.1133 353.325 48.14C353.138 48.1667 352.945 48.18 352.745 48.18ZM359.625 48.18C358.679 48.18 357.859 47.9733 357.165 47.56C356.472 47.1467 355.932 46.5667 355.545 45.82C355.172 45.06 354.985 44.1667 354.985 43.14C354.985 42.1133 355.172 41.2267 355.545 40.48C355.932 39.72 356.472 39.1333 357.165 38.72C357.859 38.3067 358.679 38.1 359.625 38.1C360.572 38.1 361.392 38.3067 362.085 38.72C362.779 39.1333 363.312 39.72 363.685 40.48C364.072 41.2267 364.265 42.1133 364.265 43.14C364.265 44.1667 364.072 45.06 363.685 45.82C363.312 46.5667 362.779 47.1467 362.085 47.56C361.392 47.9733 360.572 48.18 359.625 48.18ZM359.625 46.88C360.545 46.88 361.272 46.56 361.805 45.92C362.352 45.2667 362.625 44.3333 362.625 43.12C362.625 41.92 362.352 41 361.805 40.36C361.272 39.72 360.545 39.4 359.625 39.4C358.719 39.4 357.992 39.72 357.445 40.36C356.899 41 356.625 41.92 356.625 43.12C356.625 44.3333 356.899 45.2667 357.445 45.92C357.992 46.56 358.719 46.88 359.625 46.88ZM370.999 51.78C370.159 51.78 369.365 51.6667 368.619 51.44C367.885 51.2267 367.232 50.9 366.659 50.46L367.199 49.28C367.599 49.56 367.992 49.7867 368.379 49.96C368.779 50.1467 369.185 50.28 369.599 50.36C370.025 50.44 370.465 50.48 370.919 50.48C371.865 50.48 372.579 50.2267 373.059 49.72C373.552 49.2133 373.799 48.48 373.799 47.52V45.26H373.999C373.799 46.0333 373.372 46.6467 372.719 47.1C372.079 47.5533 371.325 47.78 370.459 47.78C369.565 47.78 368.792 47.58 368.139 47.18C367.485 46.7667 366.979 46.1933 366.619 45.46C366.272 44.7267 366.099 43.88 366.099 42.92C366.099 41.96 366.272 41.12 366.619 40.4C366.979 39.6667 367.485 39.1 368.139 38.7C368.792 38.3 369.565 38.1 370.459 38.1C371.339 38.1 372.099 38.3267 372.739 38.78C373.379 39.22 373.792 39.82 373.979 40.58H373.799V38.28H375.379V47.3C375.379 48.2867 375.212 49.1133 374.879 49.78C374.559 50.4467 374.072 50.9467 373.419 51.28C372.765 51.6133 371.959 51.78 370.999 51.78ZM370.759 46.46C371.692 46.46 372.432 46.14 372.979 45.5C373.525 44.86 373.799 44 373.799 42.92C373.799 41.84 373.525 40.9867 372.979 40.36C372.432 39.72 371.692 39.4 370.759 39.4C369.839 39.4 369.105 39.72 368.559 40.36C368.012 40.9867 367.739 41.84 367.739 42.92C367.739 44 368.012 44.86 368.559 45.5C369.105 46.14 369.839 46.46 370.759 46.46ZM382.457 48.18C381.511 48.18 380.691 47.9733 379.997 47.56C379.304 47.1467 378.764 46.5667 378.377 45.82C378.004 45.06 377.817 44.1667 377.817 43.14C377.817 42.1133 378.004 41.2267 378.377 40.48C378.764 39.72 379.304 39.1333 379.997 38.72C380.691 38.3067 381.511 38.1 382.457 38.1C383.404 38.1 384.224 38.3067 384.917 38.72C385.611 39.1333 386.144 39.72 386.517 40.48C386.904 41.2267 387.097 42.1133 387.097 43.14C387.097 44.1667 386.904 45.06 386.517 45.82C386.144 46.5667 385.611 47.1467 384.917 47.56C384.224 47.9733 383.404 48.18 382.457 48.18ZM382.457 46.88C383.377 46.88 384.104 46.56 384.637 45.92C385.184 45.2667 385.457 44.3333 385.457 43.12C385.457 41.92 385.184 41 384.637 40.36C384.104 39.72 383.377 39.4 382.457 39.4C381.551 39.4 380.824 39.72 380.277 40.36C379.731 41 379.457 41.92 379.457 43.12C379.457 44.3333 379.731 45.2667 380.277 45.92C380.824 46.56 381.551 46.88 382.457 46.88ZM397.647 48.18C396.661 48.18 395.914 47.8867 395.407 47.3C394.914 46.7133 394.667 45.8733 394.667 44.78V33.9H396.287V44.66C396.287 45.1267 396.347 45.52 396.467 45.84C396.601 46.16 396.794 46.4 397.047 46.56C397.301 46.72 397.614 46.8 397.987 46.8C398.147 46.8 398.301 46.7933 398.447 46.78C398.607 46.7533 398.754 46.72 398.887 46.68L398.847 48.04C398.634 48.08 398.427 48.1133 398.227 48.14C398.041 48.1667 397.847 48.18 397.647 48.18ZM400.385 35.86V34.04H402.385V35.86H400.385ZM400.585 48V38.28H402.205V48H400.585ZM409.354 48.18C408.38 48.18 407.54 47.9667 406.834 47.54C406.127 47.1133 405.58 46.52 405.194 45.76C404.82 44.9867 404.634 44.0933 404.634 43.08C404.634 42.0533 404.82 41.1667 405.194 40.42C405.58 39.6733 406.127 39.1 406.834 38.7C407.54 38.3 408.38 38.1 409.354 38.1C409.954 38.1 410.547 38.2067 411.134 38.42C411.72 38.6333 412.207 38.9333 412.594 39.32L412.034 40.5C411.647 40.1267 411.22 39.8533 410.754 39.68C410.3 39.5067 409.867 39.42 409.454 39.42C408.44 39.42 407.66 39.74 407.114 40.38C406.567 41.0067 406.294 41.9133 406.294 43.1C406.294 44.26 406.567 45.18 407.114 45.86C407.66 46.5267 408.44 46.86 409.454 46.86C409.867 46.86 410.3 46.7733 410.754 46.6C411.22 46.4267 411.647 46.1467 412.034 45.76L412.594 46.94C412.207 47.3267 411.714 47.6333 411.114 47.86C410.527 48.0733 409.94 48.18 409.354 48.18ZM418.676 48.18C417.65 48.18 416.763 47.98 416.016 47.58C415.283 47.1667 414.71 46.5867 414.296 45.84C413.896 45.0933 413.696 44.2 413.696 43.16C413.696 42.1467 413.896 41.2667 414.296 40.52C414.696 39.76 415.243 39.1667 415.936 38.74C416.643 38.3133 417.456 38.1 418.376 38.1C419.256 38.1 420.01 38.2933 420.636 38.68C421.263 39.0667 421.743 39.6133 422.076 40.32C422.423 41.0267 422.596 41.8733 422.596 42.86V43.48H414.936V42.42H421.516L421.196 42.68C421.196 41.6133 420.956 40.7867 420.476 40.2C420.01 39.6 419.323 39.3 418.416 39.3C417.736 39.3 417.156 39.46 416.676 39.78C416.21 40.0867 415.856 40.52 415.616 41.08C415.376 41.6267 415.256 42.2667 415.256 43V43.12C415.256 43.9333 415.383 44.62 415.636 45.18C415.903 45.74 416.296 46.1667 416.816 46.46C417.336 46.74 417.956 46.88 418.676 46.88C419.25 46.88 419.803 46.7933 420.336 46.62C420.883 46.4333 421.396 46.1333 421.876 45.72L422.436 46.86C421.996 47.26 421.436 47.58 420.756 47.82C420.076 48.06 419.383 48.18 418.676 48.18ZM424.941 48V38.28H426.521V40.44H426.301C426.581 39.6667 427.034 39.0867 427.661 38.7C428.301 38.3 429.034 38.1 429.861 38.1C430.634 38.1 431.274 38.24 431.781 38.52C432.301 38.7867 432.687 39.2067 432.941 39.78C433.194 40.3533 433.321 41.0733 433.321 41.94V48H431.701V42.04C431.701 41.44 431.621 40.9467 431.461 40.56C431.314 40.1733 431.074 39.8867 430.741 39.7C430.421 39.5133 430.001 39.42 429.481 39.42C428.894 39.42 428.381 39.5467 427.941 39.8C427.501 40.0533 427.161 40.4067 426.921 40.86C426.681 41.3133 426.561 41.8467 426.561 42.46V48H424.941ZM439.588 48.18C439.081 48.18 438.588 48.1267 438.108 48.02C437.641 47.9267 437.201 47.7933 436.788 47.62C436.388 47.4333 436.041 47.2133 435.748 46.96L436.268 45.82C436.588 46.0733 436.935 46.2867 437.308 46.46C437.681 46.62 438.061 46.74 438.448 46.82C438.835 46.9 439.228 46.94 439.628 46.94C440.388 46.94 440.961 46.8 441.348 46.52C441.735 46.24 441.928 45.86 441.928 45.38C441.928 45.0067 441.801 44.7133 441.548 44.5C441.295 44.2733 440.895 44.1 440.348 43.98L438.528 43.58C437.688 43.4067 437.061 43.1067 436.648 42.68C436.248 42.2533 436.048 41.7 436.048 41.02C436.048 40.42 436.201 39.9067 436.508 39.48C436.828 39.04 437.275 38.7 437.848 38.46C438.421 38.22 439.088 38.1 439.848 38.1C440.301 38.1 440.735 38.1467 441.148 38.24C441.561 38.3333 441.948 38.4733 442.308 38.66C442.681 38.8333 443.001 39.0533 443.268 39.32L442.728 40.46C442.475 40.22 442.188 40.02 441.868 39.86C441.548 39.6867 441.215 39.56 440.868 39.48C440.535 39.3867 440.195 39.34 439.848 39.34C439.101 39.34 438.535 39.4867 438.148 39.78C437.761 40.0733 437.568 40.46 437.568 40.94C437.568 41.3133 437.688 41.62 437.928 41.86C438.168 42.1 438.541 42.2733 439.048 42.38L440.868 42.76C441.735 42.9467 442.381 43.2467 442.808 43.66C443.248 44.06 443.468 44.6067 443.468 45.3C443.468 45.8867 443.308 46.4 442.988 46.84C442.668 47.2667 442.215 47.6 441.628 47.84C441.055 48.0667 440.375 48.18 439.588 48.18ZM450.317 48.18C449.29 48.18 448.403 47.98 447.657 47.58C446.923 47.1667 446.35 46.5867 445.937 45.84C445.537 45.0933 445.337 44.2 445.337 43.16C445.337 42.1467 445.537 41.2667 445.937 40.52C446.337 39.76 446.883 39.1667 447.577 38.74C448.283 38.3133 449.097 38.1 450.017 38.1C450.897 38.1 451.65 38.2933 452.277 38.68C452.903 39.0667 453.383 39.6133 453.717 40.32C454.063 41.0267 454.237 41.8733 454.237 42.86V43.48H446.577V42.42H453.157L452.837 42.68C452.837 41.6133 452.597 40.7867 452.117 40.2C451.65 39.6 450.963 39.3 450.057 39.3C449.377 39.3 448.797 39.46 448.317 39.78C447.85 40.0867 447.497 40.52 447.257 41.08C447.017 41.6267 446.897 42.2667 446.897 43V43.12C446.897 43.9333 447.023 44.62 447.277 45.18C447.543 45.74 447.937 46.1667 448.457 46.46C448.977 46.74 449.597 46.88 450.317 46.88C450.89 46.88 451.443 46.7933 451.977 46.62C452.523 46.4333 453.037 46.1333 453.517 45.72L454.077 46.86C453.637 47.26 453.077 47.58 452.397 47.82C451.717 48.06 451.023 48.18 450.317 48.18ZM459.861 48.18C459.355 48.18 458.861 48.1267 458.381 48.02C457.915 47.9267 457.475 47.7933 457.061 47.62C456.661 47.4333 456.315 47.2133 456.021 46.96L456.541 45.82C456.861 46.0733 457.208 46.2867 457.581 46.46C457.955 46.62 458.335 46.74 458.721 46.82C459.108 46.9 459.501 46.94 459.901 46.94C460.661 46.94 461.235 46.8 461.621 46.52C462.008 46.24 462.201 45.86 462.201 45.38C462.201 45.0067 462.075 44.7133 461.821 44.5C461.568 44.2733 461.168 44.1 460.621 43.98L458.801 43.58C457.961 43.4067 457.335 43.1067 456.921 42.68C456.521 42.2533 456.321 41.7 456.321 41.02C456.321 40.42 456.475 39.9067 456.781 39.48C457.101 39.04 457.548 38.7 458.121 38.46C458.695 38.22 459.361 38.1 460.121 38.1C460.575 38.1 461.008 38.1467 461.421 38.24C461.835 38.3333 462.221 38.4733 462.581 38.66C462.955 38.8333 463.275 39.0533 463.541 39.32L463.001 40.46C462.748 40.22 462.461 40.02 462.141 39.86C461.821 39.6867 461.488 39.56 461.141 39.48C460.808 39.3867 460.468 39.34 460.121 39.34C459.375 39.34 458.808 39.4867 458.421 39.78C458.035 40.0733 457.841 40.46 457.841 40.94C457.841 41.3133 457.961 41.62 458.201 41.86C458.441 42.1 458.815 42.2733 459.321 42.38L461.141 42.76C462.008 42.9467 462.655 43.2467 463.081 43.66C463.521 44.06 463.741 44.6067 463.741 45.3C463.741 45.8867 463.581 46.4 463.261 46.84C462.941 47.2667 462.488 47.6 461.901 47.84C461.328 48.0667 460.648 48.18 459.861 48.18ZM476.267 48.18C475.387 48.18 474.627 47.9533 473.987 47.5C473.36 47.0467 472.94 46.44 472.727 45.68H472.927V48H471.347V33.9H472.967V40.54H472.727C472.954 39.7933 473.38 39.2 474.007 38.76C474.634 38.32 475.387 38.1 476.267 38.1C477.147 38.1 477.907 38.3067 478.547 38.72C479.187 39.12 479.68 39.7 480.027 40.46C480.387 41.2067 480.567 42.1 480.567 43.14C480.567 44.1667 480.387 45.06 480.027 45.82C479.68 46.5667 479.18 47.1467 478.527 47.56C477.887 47.9733 477.134 48.18 476.267 48.18ZM475.927 46.88C476.847 46.88 477.574 46.56 478.107 45.92C478.654 45.2667 478.927 44.34 478.927 43.14C478.927 41.9267 478.654 41 478.107 40.36C477.574 39.72 476.847 39.4 475.927 39.4C475.02 39.4 474.294 39.72 473.747 40.36C473.2 41 472.927 41.9267 472.927 43.14C472.927 44.34 473.2 45.2667 473.747 45.92C474.294 46.56 475.02 46.88 475.927 46.88ZM487.387 48.18C486.36 48.18 485.474 47.98 484.727 47.58C483.994 47.1667 483.42 46.5867 483.007 45.84C482.607 45.0933 482.407 44.2 482.407 43.16C482.407 42.1467 482.607 41.2667 483.007 40.52C483.407 39.76 483.954 39.1667 484.647 38.74C485.354 38.3133 486.167 38.1 487.087 38.1C487.967 38.1 488.72 38.2933 489.347 38.68C489.974 39.0667 490.454 39.6133 490.787 40.32C491.134 41.0267 491.307 41.8733 491.307 42.86V43.48H483.647V42.42H490.227L489.907 42.68C489.907 41.6133 489.667 40.7867 489.187 40.2C488.72 39.6 488.034 39.3 487.127 39.3C486.447 39.3 485.867 39.46 485.387 39.78C484.92 40.0867 484.567 40.52 484.327 41.08C484.087 41.6267 483.967 42.2667 483.967 43V43.12C483.967 43.9333 484.094 44.62 484.347 45.18C484.614 45.74 485.007 46.1667 485.527 46.46C486.047 46.74 486.667 46.88 487.387 46.88C487.96 46.88 488.514 46.7933 489.047 46.62C489.594 46.4333 490.107 46.1333 490.587 45.72L491.147 46.86C490.707 47.26 490.147 47.58 489.467 47.82C488.787 48.06 488.094 48.18 487.387 48.18ZM496.632 48.18C495.645 48.18 494.898 47.8867 494.392 47.3C493.898 46.7133 493.652 45.8733 493.652 44.78V33.9H495.272V44.66C495.272 45.1267 495.332 45.52 495.452 45.84C495.585 46.16 495.778 46.4 496.032 46.56C496.285 46.72 496.598 46.8 496.972 46.8C497.132 46.8 497.285 46.7933 497.432 46.78C497.592 46.7533 497.738 46.72 497.872 46.68L497.832 48.04C497.618 48.08 497.412 48.1133 497.212 48.14C497.025 48.1667 496.832 48.18 496.632 48.18ZM503.512 48.18C502.565 48.18 501.745 47.9733 501.052 47.56C500.359 47.1467 499.819 46.5667 499.432 45.82C499.059 45.06 498.872 44.1667 498.872 43.14C498.872 42.1133 499.059 41.2267 499.432 40.48C499.819 39.72 500.359 39.1333 501.052 38.72C501.745 38.3067 502.565 38.1 503.512 38.1C504.459 38.1 505.279 38.3067 505.972 38.72C506.665 39.1333 507.199 39.72 507.572 40.48C507.959 41.2267 508.152 42.1133 508.152 43.14C508.152 44.1667 507.959 45.06 507.572 45.82C507.199 46.5667 506.665 47.1467 505.972 47.56C505.279 47.9733 504.459 48.18 503.512 48.18ZM503.512 46.88C504.432 46.88 505.159 46.56 505.692 45.92C506.239 45.2667 506.512 44.3333 506.512 43.12C506.512 41.92 506.239 41 505.692 40.36C505.159 39.72 504.432 39.4 503.512 39.4C502.605 39.4 501.879 39.72 501.332 40.36C500.785 41 500.512 41.92 500.512 43.12C500.512 44.3333 500.785 45.2667 501.332 45.92C501.879 46.56 502.605 46.88 503.512 46.88ZM510.585 48V38.28H512.165V40.44H511.945C512.225 39.6667 512.679 39.0867 513.305 38.7C513.945 38.3 514.679 38.1 515.505 38.1C516.279 38.1 516.919 38.24 517.425 38.52C517.945 38.7867 518.332 39.2067 518.585 39.78C518.839 40.3533 518.965 41.0733 518.965 41.94V48H517.345V42.04C517.345 41.44 517.265 40.9467 517.105 40.56C516.959 40.1733 516.719 39.8867 516.385 39.7C516.065 39.5133 515.645 39.42 515.125 39.42C514.539 39.42 514.025 39.5467 513.585 39.8C513.145 40.0533 512.805 40.4067 512.565 40.86C512.325 41.3133 512.205 41.8467 512.205 42.46V48H510.585ZM526.252 51.78C525.412 51.78 524.619 51.6667 523.872 51.44C523.139 51.2267 522.486 50.9 521.912 50.46L522.452 49.28C522.852 49.56 523.246 49.7867 523.632 49.96C524.032 50.1467 524.439 50.28 524.852 50.36C525.279 50.44 525.719 50.48 526.172 50.48C527.119 50.48 527.832 50.2267 528.312 49.72C528.806 49.2133 529.052 48.48 529.052 47.52V45.26H529.252C529.052 46.0333 528.626 46.6467 527.972 47.1C527.332 47.5533 526.579 47.78 525.712 47.78C524.819 47.78 524.046 47.58 523.392 47.18C522.739 46.7667 522.232 46.1933 521.872 45.46C521.526 44.7267 521.352 43.88 521.352 42.92C521.352 41.96 521.526 41.12 521.872 40.4C522.232 39.6667 522.739 39.1 523.392 38.7C524.046 38.3 524.819 38.1 525.712 38.1C526.592 38.1 527.352 38.3267 527.992 38.78C528.632 39.22 529.046 39.82 529.232 40.58H529.052V38.28H530.632V47.3C530.632 48.2867 530.466 49.1133 530.132 49.78C529.812 50.4467 529.326 50.9467 528.672 51.28C528.019 51.6133 527.212 51.78 526.252 51.78ZM526.012 46.46C526.946 46.46 527.686 46.14 528.232 45.5C528.779 44.86 529.052 44 529.052 42.92C529.052 41.84 528.779 40.9867 528.232 40.36C527.686 39.72 526.946 39.4 526.012 39.4C525.092 39.4 524.359 39.72 523.812 40.36C523.266 40.9867 522.992 41.84 522.992 42.92C522.992 44 523.266 44.86 523.812 45.5C524.359 46.14 525.092 46.46 526.012 46.46ZM542.708 48.18C541.561 48.18 540.701 47.8733 540.128 47.26C539.555 46.6467 539.268 45.7733 539.268 44.64V39.54H537.368V38.28H539.268V35.3H540.888V38.28H543.968V39.54H540.888V44.48C540.888 45.24 541.048 45.82 541.368 46.22C541.688 46.6067 542.208 46.8 542.928 46.8C543.141 46.8 543.355 46.7733 543.568 46.72C543.781 46.6667 543.975 46.6133 544.148 46.56L544.428 47.8C544.255 47.8933 544.001 47.98 543.668 48.06C543.335 48.14 543.015 48.18 542.708 48.18ZM549.742 48.18C548.796 48.18 547.976 47.9733 547.282 47.56C546.589 47.1467 546.049 46.5667 545.662 45.82C545.289 45.06 545.102 44.1667 545.102 43.14C545.102 42.1133 545.289 41.2267 545.662 40.48C546.049 39.72 546.589 39.1333 547.282 38.72C547.976 38.3067 548.796 38.1 549.742 38.1C550.689 38.1 551.509 38.3067 552.202 38.72C552.896 39.1333 553.429 39.72 553.802 40.48C554.189 41.2267 554.382 42.1133 554.382 43.14C554.382 44.1667 554.189 45.06 553.802 45.82C553.429 46.5667 552.896 47.1467 552.202 47.56C551.509 47.9733 550.689 48.18 549.742 48.18ZM549.742 46.88C550.662 46.88 551.389 46.56 551.922 45.92C552.469 45.2667 552.742 44.3333 552.742 43.12C552.742 41.92 552.469 41 551.922 40.36C551.389 39.72 550.662 39.4 549.742 39.4C548.836 39.4 548.109 39.72 547.562 40.36C547.016 41 546.742 41.92 546.742 43.12C546.742 44.3333 547.016 45.2667 547.562 45.92C548.109 46.56 548.836 46.88 549.742 46.88ZM579.152 47.028C582.008 48.972 585.488 50.88 589.592 52.752C593.696 54.648 598.016 55.596 602.552 55.596C603.344 55.596 604.04 55.536 604.64 55.416C604.712 55.392 604.76 55.44 604.784 55.56C604.832 55.68 604.832 55.752 604.784 55.776C603.392 56.088 601.928 56.244 600.392 56.244C596.384 56.244 592.268 55.488 588.044 53.976C583.82 52.464 579.86 50.46 576.164 47.964L579.152 47.028ZM573.608 48.432C571.376 48.432 569.384 47.916 567.632 46.884C565.904 45.828 564.56 44.412 563.6 42.636C562.664 40.836 562.196 38.88 562.196 36.768C562.196 34.296 562.82 32.184 564.068 30.432C565.316 28.656 566.912 27.324 568.856 26.436C570.824 25.548 572.828 25.104 574.868 25.104C577.148 25.104 579.152 25.644 580.88 26.724C582.608 27.78 583.928 29.184 584.84 30.936C585.776 32.688 586.244 34.548 586.244 36.516C586.244 38.7 585.668 40.704 584.516 42.528C583.364 44.352 581.816 45.792 579.872 46.848C577.952 47.904 575.864 48.432 573.608 48.432ZM574.868 47.676C576.5 47.676 577.964 47.28 579.26 46.488C580.58 45.696 581.612 44.544 582.356 43.032C583.124 41.496 583.508 39.66 583.508 37.524C583.508 35.268 583.088 33.264 582.248 31.512C581.408 29.76 580.22 28.392 578.684 27.408C577.172 26.424 575.396 25.932 573.356 25.932C570.716 25.932 568.652 26.784 567.164 28.488C565.676 30.192 564.932 32.532 564.932 35.508C564.932 37.764 565.352 39.828 566.192 41.7C567.032 43.548 568.208 45.012 569.72 46.092C571.232 47.148 572.948 47.676 574.868 47.676ZM605.023 34.68C605.023 33.48 604.831 32.664 604.447 32.232C604.063 31.8 603.319 31.584 602.215 31.584C602.143 31.584 602.107 31.512 602.107 31.368C602.107 31.224 602.143 31.152 602.215 31.152L603.655 31.188C604.375 31.236 604.951 31.26 605.383 31.26C605.719 31.26 606.223 31.236 606.895 31.188L608.263 31.152C608.311 31.152 608.335 31.224 608.335 31.368C608.335 31.512 608.311 31.584 608.263 31.584C607.303 31.584 606.643 31.8 606.283 32.232C605.947 32.664 605.779 33.48 605.779 34.68V41.376C605.779 43.608 605.155 45.348 603.907 46.596C602.659 47.844 600.979 48.468 598.867 48.468C597.523 48.468 596.299 48.204 595.195 47.676C594.091 47.124 593.215 46.344 592.567 45.336C591.919 44.328 591.595 43.128 591.595 41.736V34.068C591.595 33.348 591.523 32.82 591.379 32.484C591.259 32.148 591.007 31.92 590.623 31.8C590.263 31.656 589.699 31.584 588.931 31.584C588.859 31.584 588.823 31.512 588.823 31.368C588.823 31.224 588.859 31.152 588.931 31.152L590.551 31.188C591.415 31.236 592.099 31.26 592.603 31.26C593.203 31.26 593.959 31.236 594.871 31.188L596.419 31.152C596.491 31.152 596.527 31.224 596.527 31.368C596.527 31.512 596.491 31.584 596.419 31.584C595.651 31.584 595.075 31.656 594.691 31.8C594.307 31.944 594.043 32.196 593.899 32.556C593.779 32.892 593.719 33.42 593.719 34.14V40.8C593.719 43.032 594.271 44.688 595.375 45.768C596.503 46.824 597.943 47.352 599.695 47.352C601.351 47.352 602.647 46.848 603.583 45.84C604.543 44.808 605.023 43.344 605.023 41.448V34.68ZM610.067 48C610.019 48 609.995 47.928 609.995 47.784C609.995 47.64 610.019 47.568 610.067 47.568C610.859 47.568 611.435 47.508 611.795 47.388C612.155 47.268 612.395 47.04 612.515 46.704C612.659 46.344 612.731 45.804 612.731 45.084V34.068C612.731 33.348 612.659 32.82 612.515 32.484C612.395 32.148 612.155 31.92 611.795 31.8C611.435 31.656 610.859 31.584 610.067 31.584C610.019 31.584 609.995 31.512 609.995 31.368C609.995 31.224 610.019 31.152 610.067 31.152H622.595C622.835 31.152 622.955 31.248 622.955 31.44L622.991 33.672C623.015 34.128 623.027 34.704 623.027 35.4C623.027 35.472 622.955 35.508 622.811 35.508C622.667 35.508 622.595 35.472 622.595 35.4C622.499 34.296 622.091 33.396 621.371 32.7C620.675 31.98 619.811 31.62 618.779 31.62H617.771C616.931 31.62 616.319 31.692 615.935 31.836C615.551 31.956 615.287 32.184 615.143 32.52C614.999 32.856 614.927 33.384 614.927 34.104V44.94C614.927 45.636 614.999 46.164 615.143 46.524C615.287 46.86 615.551 47.1 615.935 47.244C616.343 47.364 616.955 47.424 617.771 47.424H619.499C620.483 47.424 621.347 47.04 622.091 46.272C622.859 45.48 623.375 44.46 623.639 43.212C623.639 43.14 623.699 43.104 623.819 43.104C623.963 43.104 624.035 43.14 624.035 43.212C623.867 44.94 623.783 46.356 623.783 47.46C623.783 47.652 623.747 47.796 623.675 47.892C623.603 47.964 623.459 48 623.243 48H610.067ZM621.155 40.26C621.059 40.26 620.531 40.188 619.571 40.044C618.635 39.876 616.787 39.792 614.027 39.792V39.036C616.763 39.036 618.599 38.976 619.535 38.856C620.495 38.736 621.035 38.676 621.155 38.676C621.275 38.676 621.335 38.928 621.335 39.432C621.335 39.984 621.275 40.26 621.155 40.26ZM626.767 48C626.719 48 626.695 47.928 626.695 47.784C626.695 47.64 626.719 47.568 626.767 47.568C627.559 47.568 628.135 47.508 628.495 47.388C628.855 47.268 629.095 47.04 629.215 46.704C629.359 46.344 629.431 45.804 629.431 45.084V34.068C629.431 33.348 629.359 32.82 629.215 32.484C629.095 32.148 628.855 31.92 628.495 31.8C628.135 31.656 627.559 31.584 626.767 31.584C626.719 31.584 626.695 31.512 626.695 31.368C626.695 31.224 626.719 31.152 626.767 31.152H639.295C639.535 31.152 639.655 31.248 639.655 31.44L639.691 33.672C639.715 34.128 639.727 34.704 639.727 35.4C639.727 35.472 639.655 35.508 639.511 35.508C639.367 35.508 639.295 35.472 639.295 35.4C639.199 34.296 638.791 33.396 638.071 32.7C637.375 31.98 636.511 31.62 635.479 31.62H634.471C633.631 31.62 633.019 31.692 632.635 31.836C632.251 31.956 631.987 32.184 631.843 32.52C631.699 32.856 631.627 33.384 631.627 34.104V44.94C631.627 45.636 631.699 46.164 631.843 46.524C631.987 46.86 632.251 47.1 632.635 47.244C633.043 47.364 633.655 47.424 634.471 47.424H636.199C637.183 47.424 638.047 47.04 638.791 46.272C639.559 45.48 640.075 44.46 640.339 43.212C640.339 43.14 640.399 43.104 640.519 43.104C640.663 43.104 640.735 43.14 640.735 43.212C640.567 44.94 640.483 46.356 640.483 47.46C640.483 47.652 640.447 47.796 640.375 47.892C640.303 47.964 640.159 48 639.943 48H626.767ZM637.855 40.26C637.759 40.26 637.231 40.188 636.271 40.044C635.335 39.876 633.487 39.792 630.727 39.792V39.036C633.463 39.036 635.299 38.976 636.235 38.856C637.195 38.736 637.735 38.676 637.855 38.676C637.975 38.676 638.035 38.928 638.035 39.432C638.035 39.984 637.975 40.26 637.855 40.26ZM645.734 31.944L646.454 32.052V44.076C646.454 45.348 646.634 46.248 646.994 46.776C647.354 47.304 647.978 47.568 648.866 47.568C648.914 47.568 648.938 47.64 648.938 47.784C648.938 47.928 648.914 48 648.866 48C648.338 48 647.93 47.988 647.642 47.964L646.13 47.928L644.582 47.964C644.27 47.988 643.838 48 643.286 48C643.238 48 643.214 47.928 643.214 47.784C643.214 47.64 643.238 47.568 643.286 47.568C644.174 47.568 644.798 47.304 645.158 46.776C645.542 46.248 645.734 45.348 645.734 44.076V31.944ZM659.162 48.396C659.162 48.444 659.102 48.48 658.982 48.504C658.862 48.528 658.778 48.516 658.73 48.468L646.922 34.104C646.154 33.192 645.482 32.544 644.906 32.16C644.354 31.776 643.814 31.584 643.286 31.584C643.238 31.584 643.214 31.512 643.214 31.368C643.214 31.224 643.238 31.152 643.286 31.152L645.302 31.188L647.21 31.152C647.378 31.152 647.51 31.2 647.606 31.296C647.726 31.392 647.894 31.596 648.11 31.908C648.302 32.22 648.566 32.592 648.902 33.024L658.802 45.228L659.162 48.396ZM659.162 48.396L658.442 47.28V35.076C658.442 33.804 658.262 32.904 657.902 32.376C657.566 31.848 656.954 31.584 656.066 31.584C655.994 31.584 655.958 31.512 655.958 31.368C655.958 31.224 655.994 31.152 656.066 31.152L657.29 31.188C657.914 31.236 658.418 31.26 658.802 31.26C659.186 31.26 659.714 31.236 660.386 31.188L661.646 31.152C661.718 31.152 661.754 31.224 661.754 31.368C661.754 31.512 661.718 31.584 661.646 31.584C660.758 31.584 660.122 31.848 659.738 32.376C659.354 32.904 659.162 33.804 659.162 35.076V48.396ZM671.321 48.18C670.654 48.18 670.054 48.0533 669.521 47.8C669.001 47.5333 668.588 47.1733 668.281 46.72C667.974 46.2667 667.821 45.76 667.821 45.2C667.821 44.48 668.001 43.9133 668.361 43.5C668.734 43.0867 669.341 42.7933 670.181 42.62C671.034 42.4467 672.194 42.36 673.661 42.36H674.561V43.42H673.681C672.868 43.42 672.188 43.4467 671.641 43.5C671.094 43.5533 670.661 43.6467 670.341 43.78C670.021 43.9133 669.794 44.0867 669.661 44.3C669.528 44.5133 669.461 44.78 669.461 45.1C669.461 45.6467 669.648 46.0933 670.021 46.44C670.408 46.7867 670.928 46.96 671.581 46.96C672.114 46.96 672.581 46.8333 672.981 46.58C673.394 46.3267 673.714 45.98 673.941 45.54C674.181 45.1 674.301 44.5933 674.301 44.02V41.74C674.301 40.9133 674.134 40.32 673.801 39.96C673.468 39.5867 672.921 39.4 672.161 39.4C671.574 39.4 671.008 39.4867 670.461 39.66C669.914 39.82 669.354 40.0867 668.781 40.46L668.221 39.28C668.568 39.04 668.961 38.8333 669.401 38.66C669.841 38.4733 670.301 38.3333 670.781 38.24C671.261 38.1467 671.721 38.1 672.161 38.1C673.001 38.1 673.694 38.24 674.241 38.52C674.788 38.7867 675.194 39.2 675.461 39.76C675.728 40.3067 675.861 41.0133 675.861 41.88V48H674.341V45.74H674.521C674.414 46.2467 674.208 46.68 673.901 47.04C673.608 47.4 673.241 47.68 672.801 47.88C672.361 48.08 671.868 48.18 671.321 48.18ZM678.866 48V38.28H680.446V40.44H680.226C680.506 39.6667 680.96 39.0867 681.586 38.7C682.226 38.3 682.96 38.1 683.786 38.1C684.56 38.1 685.2 38.24 685.706 38.52C686.226 38.7867 686.613 39.2067 686.866 39.78C687.12 40.3533 687.246 41.0733 687.246 41.94V48H685.626V42.04C685.626 41.44 685.546 40.9467 685.386 40.56C685.24 40.1733 685 39.8867 684.666 39.7C684.346 39.5133 683.926 39.42 683.406 39.42C682.82 39.42 682.306 39.5467 681.866 39.8C681.426 40.0533 681.086 40.4067 680.846 40.86C680.606 41.3133 680.486 41.8467 680.486 42.46V48H678.866ZM693.934 48.18C693.067 48.18 692.307 47.9733 691.654 47.56C691.014 47.1467 690.514 46.5667 690.154 45.82C689.807 45.06 689.634 44.1667 689.634 43.14C689.634 42.1 689.807 41.2067 690.154 40.46C690.514 39.7 691.014 39.12 691.654 38.72C692.307 38.3067 693.067 38.1 693.934 38.1C694.814 38.1 695.567 38.32 696.194 38.76C696.82 39.2 697.24 39.7933 697.454 40.54H697.234V33.9H698.854V48H697.274V45.68H697.474C697.26 46.44 696.834 47.0467 696.194 47.5C695.567 47.9533 694.814 48.18 693.934 48.18ZM694.274 46.88C695.194 46.88 695.92 46.56 696.454 45.92C697 45.2667 697.274 44.34 697.274 43.14C697.274 41.9267 697 41 696.454 40.36C695.92 39.72 695.194 39.4 694.274 39.4C693.367 39.4 692.64 39.72 692.094 40.36C691.547 41 691.274 41.9267 691.274 43.14C691.274 44.34 691.547 45.2667 692.094 45.92C692.64 46.56 693.367 46.88 694.274 46.88ZM709.116 48V26.176H716.764V42.528H725.34V48H709.116ZM726.812 48V26.176H734.46V48H726.812ZM745.429 48L736.245 26.176H744.501L749.397 39.744H749.461L754.133 26.176H761.109L752.053 48H745.429ZM762.829 48V26.176H779.181V30.784H770.477V34.624H778.445V39.232H770.477V43.392H779.309V48H762.829ZM780.262 48L790.214 26.176H798.214L808.166 48H800.582L799.142 44.448H789.286L787.846 48H780.262ZM790.854 40.512H797.542L794.214 31.872L790.854 40.512ZM809.621 48V26.176H817.269V48H809.621ZM820.654 48V26.176H831.598C840.046 26.176 843.438 32.32 843.438 37.376C843.438 42.336 840.398 48 832.974 48H820.654ZM828.302 42.816H830.318C834.03 42.816 835.79 40.992 835.79 37.088C835.79 34.208 834.478 31.36 830.35 31.36H828.302V42.816Z" fill="white"/>
</svg>
