<svg xmlns="http://www.w3.org/2000/svg" width="844" height="57" fill="none" viewBox="0 0 844 57"><path fill="#fff" d="M98.89 15V2.32h-5.12V.9h11.899v1.42h-5.12V15zm8.351 0V.9h1.62v6.54h-.26q.42-1.16 1.36-1.74.96-.6 2.2-.6 1.16 0 1.92.42.78.42 1.16 1.28.38.84.38 2.14V15h-1.62V9.04q0-.9-.24-1.48a1.6 1.6 0 0 0-.72-.86q-.48-.28-1.26-.28-.88 0-1.54.38t-1.02 1.06-.36 1.6V15zm11.167-12.14V1.04h2v1.82zm.2 12.14V5.28h1.62V15zm7.928.18q-.76 0-1.48-.16a7 7 0 0 1-1.32-.4 4.5 4.5 0 0 1-1.04-.66l.52-1.14a5.2 5.2 0 0 0 1.04.64q.561.24 1.14.36.58.12 1.18.12 1.14 0 1.72-.42t.58-1.14q0-.56-.38-.88-.38-.34-1.2-.52l-1.82-.4q-1.26-.26-1.88-.9-.6-.64-.6-1.66 0-.9.46-1.54.48-.66 1.34-1.02t2-.36q.68 0 1.3.14t1.16.42a3.3 3.3 0 0 1 .96.66l-.54 1.14q-.38-.36-.86-.6-.48-.26-1-.38a3.8 3.8 0 0 0-1.02-.14q-1.12 0-1.7.44t-.58 1.16q0 .56.36.92t1.12.52l1.82.38q1.3.28 1.94.9.66.6.66 1.64 0 .88-.48 1.54-.48.64-1.36 1-.86.34-2.04.34m14.066-.18-3.62-9.72h1.7l2.98 8.52h-.48l3.08-8.52h1.38l3.02 8.52h-.46l3.02-8.52h1.62l-3.64 9.72h-1.54l-3.18-8.74h.86l-3.18 8.74zm18.48.18q-1.54 0-2.66-.6a4.4 4.4 0 0 1-1.72-1.74q-.6-1.12-.6-2.68 0-1.52.6-2.64.6-1.14 1.64-1.78 1.06-.64 2.44-.64 1.32 0 2.26.58t1.44 1.64q.52 1.06.52 2.54v.62h-7.66V9.42h6.58l-.32.26q0-1.6-.72-2.48-.7-.9-2.06-.9-1.02 0-1.74.48-.7.46-1.06 1.3-.36.82-.36 1.92v.12q0 1.22.38 2.06.4.84 1.18 1.28.78.42 1.86.42.86 0 1.66-.26a4.7 4.7 0 0 0 1.54-.9l.56 1.14q-.66.6-1.68.96a6.2 6.2 0 0 1-2.08.36m11.184 0q-1.32 0-2.28-.68a3.28 3.28 0 0 1-1.26-1.82h.2V15h-1.58V.9h1.62v6.64h-.24a3.28 3.28 0 0 1 1.28-1.78q.94-.66 2.26-.66t2.28.62q.96.6 1.48 1.74.54 1.12.54 2.68 0 1.54-.54 2.68-.519 1.12-1.5 1.74-.96.62-2.26.62m-.34-1.3q1.38 0 2.18-.96.82-.98.82-2.78 0-1.82-.82-2.78-.8-.96-2.18-.96-1.36 0-2.18.96t-.82 2.78q0 1.8.82 2.78.82.96 2.18.96m10.36 1.3q-.76 0-1.48-.16a7 7 0 0 1-1.32-.4 4.5 4.5 0 0 1-1.04-.66l.52-1.14a5.2 5.2 0 0 0 1.04.64q.561.24 1.14.36.58.12 1.18.12 1.14 0 1.72-.42t.58-1.14q0-.56-.38-.88-.38-.34-1.2-.52l-1.82-.4q-1.26-.26-1.88-.9-.6-.64-.6-1.66 0-.9.46-1.54.48-.66 1.34-1.02t2-.36q.68 0 1.3.14t1.16.42a3.3 3.3 0 0 1 .96.66l-.54 1.14q-.38-.36-.86-.6-.48-.26-1-.38a3.8 3.8 0 0 0-1.02-.14q-1.12 0-1.7.44t-.58 1.16q0 .56.36.92t1.12.52l1.82.38q1.3.28 1.94.9.66.6.66 1.64 0 .88-.48 1.54-.48.64-1.36 1-.86.34-2.04.34m6.149-12.32V1.04h2v1.82zm.2 12.14V5.28h1.62V15zm8.549.18q-1.72 0-2.58-.92t-.86-2.62v-5.1h-1.9V5.28h1.9V2.3h1.62v2.98h3.08v1.26h-3.08v4.94q0 1.14.48 1.74.48.58 1.56.58.32 0 .64-.08t.58-.16l.28 1.24q-.26.14-.76.26a4 4 0 0 1-.96.12m7.374 0q-1.54 0-2.66-.6a4.4 4.4 0 0 1-1.72-1.74q-.6-1.12-.6-2.68 0-1.52.6-2.64.6-1.14 1.64-1.78 1.06-.64 2.44-.64 1.32 0 2.26.58t1.44 1.64q.52 1.06.52 2.54v.62h-7.66V9.42h6.58l-.32.26q0-1.6-.72-2.48-.7-.9-2.06-.9-1.02 0-1.74.48-.7.46-1.06 1.3-.36.82-.36 1.92v.12q0 1.22.38 2.06.4.84 1.18 1.28.78.42 1.86.42.86 0 1.66-.26a4.7 4.7 0 0 0 1.54-.9l.56 1.14q-.66.6-1.68.96t-2.08.36m15.521 0q-1.46 0-2.52-.64a4.33 4.33 0 0 1-1.64-1.78q-.56-1.16-.56-2.68 0-1.54.56-2.66a4.1 4.1 0 0 1 1.64-1.72q1.06-.6 2.52-.6.9 0 1.78.32t1.46.9l-.56 1.18a3.7 3.7 0 0 0-1.28-.82 3.6 3.6 0 0 0-1.3-.26q-1.52 0-2.34.96-.82.94-.82 2.72 0 1.74.82 2.76.82 1 2.34 1 .62 0 1.3-.26a3.55 3.55 0 0 0 1.28-.84l.56 1.18q-.58.58-1.48.92a5.1 5.1 0 0 1-1.76.32m8.983 0q-1.42 0-2.46-.62a4.26 4.26 0 0 1-1.62-1.74q-.56-1.14-.56-2.68t.56-2.66q.58-1.14 1.62-1.76t2.46-.62 2.46.62a4.1 4.1 0 0 1 1.6 1.76q.58 1.12.58 2.66t-.58 2.68a4.1 4.1 0 0 1-1.6 1.74q-1.04.62-2.46.62m0-1.3q1.38 0 2.18-.96.82-.98.82-2.8 0-1.8-.82-2.76-.8-.96-2.18-.96-1.36 0-2.18.96t-.82 2.76q0 1.82.82 2.8.82.96 2.18.96m7.073 1.12V5.28h1.58v2.16h-.22q.42-1.16 1.36-1.74.96-.6 2.2-.6 1.161 0 1.92.42.78.4 1.16 1.26t.38 2.16V15h-1.62V9.04q0-.9-.24-1.48a1.6 1.6 0 0 0-.72-.86q-.48-.28-1.26-.28-.88 0-1.54.38t-1.02 1.06-.36 1.6V15zm15.267.18q-1.719 0-2.58-.92-.86-.92-.86-2.62v-5.1h-1.9V5.28h1.9V2.3h1.62v2.98h3.08v1.26h-3.08v4.94q0 1.14.48 1.74.48.58 1.56.58.32 0 .64-.08t.58-.16l.28 1.24q-.26.14-.76.26t-.96.12m6.153 0q-1 0-1.8-.38a3.26 3.26 0 0 1-1.24-1.08 2.65 2.65 0 0 1-.46-1.52q0-1.08.54-1.7.56-.62 1.82-.88 1.28-.26 3.48-.26h.9v1.06h-.88q-1.221 0-2.04.08-.82.08-1.3.28t-.68.52-.2.8q0 .82.56 1.34.579.52 1.56.52.8 0 1.4-.38.62-.38.96-1.04.36-.66.36-1.52V8.74q0-1.24-.5-1.78-.5-.56-1.64-.56-.88 0-1.7.26a6.4 6.4 0 0 0-1.68.8l-.56-1.18q.52-.36 1.18-.62.66-.28 1.38-.42t1.38-.14q1.26 0 2.08.42.82.4 1.22 1.24.4.82.4 2.12V15h-1.52v-2.26h.18q-.16.76-.62 1.3a3 3 0 0 1-1.1.84q-.66.3-1.48.3M262.9 2.86V1.04h2v1.82zm.2 12.14V5.28h1.62V15zm4.649 0V5.28h1.58v2.16h-.22q.42-1.16 1.36-1.74.96-.6 2.2-.6 1.16 0 1.92.42.78.4 1.16 1.26t.38 2.16V15h-1.62V9.04q0-.9-.24-1.48a1.6 1.6 0 0 0-.72-.86q-.48-.28-1.26-.28-.88 0-1.54.38t-1.02 1.06-.36 1.6V15zm14.647.18q-.76 0-1.48-.16a7 7 0 0 1-1.32-.4 4.5 4.5 0 0 1-1.04-.66l.52-1.14q.48.38 1.04.64.56.24 1.14.36t1.18.12q1.14 0 1.72-.42t.58-1.14q0-.56-.38-.88-.381-.34-1.2-.52l-1.82-.4q-1.26-.26-1.88-.9-.6-.64-.6-1.66 0-.9.46-1.54.48-.66 1.34-1.02t2-.36q.68 0 1.3.14t1.16.42q.56.26.96.66l-.54 1.14q-.38-.36-.86-.6-.48-.26-1-.38a3.8 3.8 0 0 0-1.02-.14q-1.12 0-1.7.44t-.58 1.16q0 .56.36.92t1.12.52l1.82.38q1.3.28 1.94.9.66.6.66 1.64 0 .88-.48 1.54-.48.64-1.36 1-.861.34-2.04.34m15.605 0q-1.46 0-2.52-.64a4.33 4.33 0 0 1-1.64-1.78q-.56-1.16-.56-2.68 0-1.54.56-2.66a4.1 4.1 0 0 1 1.64-1.72q1.06-.6 2.52-.6.9 0 1.78.32t1.46.9l-.56 1.18a3.7 3.7 0 0 0-1.28-.82 3.6 3.6 0 0 0-1.3-.26q-1.52 0-2.34.96-.82.94-.82 2.72 0 1.74.82 2.76.82 1 2.34 1 .62 0 1.3-.26a3.55 3.55 0 0 0 1.28-.84l.56 1.18q-.58.58-1.48.92a5.1 5.1 0 0 1-1.76.32m8.983 0q-1.42 0-2.46-.62a4.25 4.25 0 0 1-1.62-1.74q-.56-1.14-.56-2.68t.56-2.66q.579-1.14 1.62-1.76 1.04-.62 2.46-.62t2.46.62 1.6 1.76q.58 1.12.58 2.66t-.58 2.68a4.13 4.13 0 0 1-1.6 1.74q-1.041.62-2.46.62m0-1.3q1.38 0 2.18-.96.82-.98.82-2.8 0-1.8-.82-2.76-.8-.96-2.18-.96-1.36 0-2.18.96t-.82 2.76q0 1.82.82 2.8.82.96 2.18.96m7.073 4.72V5.28h1.58v2.3h-.2q.32-1.14 1.26-1.8.96-.68 2.28-.68 1.3 0 2.26.62.98.6 1.5 1.74.54 1.12.54 2.68 0 1.54-.54 2.68-.52 1.12-1.48 1.74t-2.28.62-2.26-.66a3.37 3.37 0 0 1-1.28-1.8h.24v5.88zm4.58-4.72q1.38 0 2.18-.96.82-.98.82-2.78 0-1.82-.82-2.78-.8-.96-2.18-.96-1.36 0-2.18.96t-.82 2.78q0 1.8.82 2.78.82.96 2.18.96m8.064 4.72 1.82-4.1v.7l-4.26-9.92h1.76l3.48 8.52h-.54l3.52-8.52h1.7l-5.78 13.32zm9.153-3.6V5.28h1.58v2.3h-.2q.34-1.18 1.18-1.78.84-.62 2.22-.72l.58-.06.12 1.4-1.02.12q-1.36.12-2.1.88-.72.74-.72 2.04V15zm6.968-12.14V1.04h2v1.82zm.2 12.14V5.28h1.62V15zm8.948 3.78q-1.26 0-2.38-.34a5.9 5.9 0 0 1-1.96-.98l.54-1.18q.6.42 1.18.68.6.28 1.22.4.64.12 1.32.12 1.42 0 2.14-.76.74-.76.74-2.2v-2.26h.2a3.12 3.12 0 0 1-1.28 1.84q-.96.68-2.26.68-1.34 0-2.32-.6a4.15 4.15 0 0 1-1.52-1.72q-.52-1.1-.52-2.54t.52-2.52q.54-1.1 1.52-1.7t2.32-.6q1.32 0 2.28.68.96.66 1.24 1.8h-.18v-2.3h1.58v9.02q0 1.48-.5 2.48a3.2 3.2 0 0 1-1.46 1.5q-.98.5-2.42.5m-.24-5.32q1.401 0 2.22-.96t.82-2.58-.82-2.56q-.819-.96-2.22-.96-1.38 0-2.2.96-.82.94-.82 2.56t.82 2.58 2.2.96m7.659 1.54V.9h1.62v6.54h-.26q.42-1.16 1.36-1.74.96-.6 2.2-.6 1.16 0 1.92.42.78.42 1.16 1.28.38.84.38 2.14V15h-1.62V9.04q0-.9-.24-1.48a1.6 1.6 0 0 0-.72-.86q-.48-.28-1.26-.28-.88 0-1.54.38t-1.02 1.06-.36 1.6V15zm15.267.18q-1.719 0-2.58-.92-.86-.92-.86-2.62v-5.1h-1.9V5.28h1.9V2.3h1.62v2.98h3.08v1.26h-3.08v4.94q0 1.14.48 1.74.48.58 1.56.58.32 0 .64-.08t.58-.16l.28 1.24q-.26.14-.76.26t-.96.12m7.375 0q-1.54 0-2.66-.6a4.4 4.4 0 0 1-1.72-1.74q-.6-1.12-.6-2.68 0-1.52.6-2.64.6-1.14 1.64-1.78 1.06-.64 2.44-.64 1.32 0 2.26.58t1.44 1.64q.52 1.06.52 2.54v.62h-7.66V9.42h6.58l-.32.26q0-1.6-.72-2.48-.7-.9-2.06-.9-1.02 0-1.74.48-.7.46-1.06 1.3-.36.82-.36 1.92v.12q0 1.22.38 2.06.4.84 1.18 1.28.78.42 1.86.42.86 0 1.66-.26a4.7 4.7 0 0 0 1.54-.9l.56 1.14q-.66.6-1.68.96t-2.08.36m9.964 0q-1.299 0-2.28-.62-.96-.62-1.5-1.74-.52-1.14-.52-2.68 0-1.56.52-2.68.54-1.14 1.5-1.74.981-.62 2.28-.62 1.32 0 2.26.66a3.17 3.17 0 0 1 1.26 1.78h-.22V.9h1.62V15h-1.58v-2.32h.2a3.24 3.24 0 0 1-1.28 1.82q-.94.68-2.26.68m.34-1.3q1.38 0 2.18-.96.82-.98.82-2.78 0-1.82-.82-2.78-.8-.96-2.18-.96-1.36 0-2.18.96t-.82 2.78q0 1.8.82 2.78.82.96 2.18.96M405.132 15V5.28h1.58v2.16h-.22q.24-.74.7-1.26.48-.54 1.12-.8.66-.28 1.44-.28 1.24 0 2 .6.78.58 1.04 1.82h-.3q.36-1.12 1.28-1.76.94-.66 2.18-.66 1.101 0 1.8.42.72.42 1.08 1.28.36.84.36 2.14V15h-1.62V9.02q0-1.34-.46-1.96-.459-.64-1.56-.64-.78 0-1.38.38-.579.38-.9 1.08-.3.68-.3 1.62V15h-1.62V9.02q0-1.34-.48-1.96-.46-.64-1.54-.64-.8 0-1.38.38t-.9 1.08q-.3.68-.3 1.62V15zm20.529.18q-1.18 0-1.96-.42-.76-.44-1.16-1.3-.38-.86-.38-2.14V5.28h1.62v6.02q0 .86.22 1.44.24.56.74.84.5.26 1.24.26.84 0 1.46-.38t.98-1.06.36-1.6V5.28h1.62V15h-1.58v-2.24h.26q-.399 1.18-1.32 1.8-.9.62-2.1.62m11.051 0q-.76 0-1.48-.16a7 7 0 0 1-1.32-.4 4.5 4.5 0 0 1-1.04-.66l.52-1.14a5.2 5.2 0 0 0 1.04.64q.56.24 1.14.36t1.18.12q1.14 0 1.72-.42t.58-1.14q0-.56-.38-.88-.38-.34-1.2-.52l-1.82-.4q-1.26-.26-1.88-.9-.6-.64-.6-1.66 0-.9.46-1.54.48-.66 1.34-1.02t2-.36q.68 0 1.3.14t1.16.42q.56.26.96.66l-.54 1.14q-.38-.36-.86-.6-.48-.26-1-.38a3.8 3.8 0 0 0-1.02-.14q-1.12 0-1.7.44t-.58 1.16q0 .56.36.92t1.12.52l1.82.38q1.3.28 1.94.9.66.6.66 1.64 0 .88-.48 1.54-.48.64-1.36 1-.86.34-2.04.34m6.149-12.32V1.04h2v1.82zm.2 12.14V5.28h1.62V15zm8.768.18q-1.46 0-2.52-.64a4.33 4.33 0 0 1-1.64-1.78q-.56-1.16-.56-2.68 0-1.54.56-2.66a4.1 4.1 0 0 1 1.64-1.72q1.06-.6 2.52-.6.9 0 1.78.32t1.46.9l-.56 1.18a3.7 3.7 0 0 0-1.28-.82 3.6 3.6 0 0 0-1.3-.26q-1.52 0-2.34.96-.82.94-.82 2.72 0 1.74.82 2.76.82 1 2.34 1 .62 0 1.3-.26a3.55 3.55 0 0 0 1.28-.84l.56 1.18q-.58.58-1.48.92a5.1 5.1 0 0 1-1.76.32m5.914 2.1-.76-.58q.36-.38.54-.72a1.9 1.9 0 0 0 .26-.66q.08-.32.08-.66l.36.34h-1.32v-2.04h2.04v1.44q0 .54-.12 1.02a3.3 3.3 0 0 1-.36.96 4 4 0 0 1-.72.9m13.227-2.1q-1.46 0-2.52-.64a4.3 4.3 0 0 1-1.64-1.78q-.56-1.16-.56-2.68 0-1.54.56-2.66a4.1 4.1 0 0 1 1.64-1.72q1.06-.6 2.52-.6.9 0 1.78.32t1.46.9l-.56 1.18a3.7 3.7 0 0 0-1.28-.82 3.6 3.6 0 0 0-1.3-.26q-1.52 0-2.34.96-.82.94-.82 2.72 0 1.74.82 2.76.82 1 2.34 1 .62 0 1.3-.26a3.55 3.55 0 0 0 1.28-.84l.56 1.18q-.58.58-1.48.92a5.1 5.1 0 0 1-1.76.32m8.983 0q-1.42 0-2.46-.62a4.25 4.25 0 0 1-1.62-1.74q-.56-1.14-.56-2.68t.56-2.66q.579-1.14 1.62-1.76 1.04-.62 2.46-.62t2.46.62 1.6 1.76q.58 1.12.58 2.66t-.58 2.68a4.13 4.13 0 0 1-1.6 1.74q-1.041.62-2.46.62m0-1.3q1.38 0 2.18-.96.82-.98.82-2.8 0-1.8-.82-2.76-.8-.96-2.18-.96-1.36 0-2.18.96t-.82 2.76q0 1.82.82 2.8.82.96 2.18.96m7.073 1.12V5.28h1.58v2.16h-.22q.42-1.16 1.36-1.74.96-.6 2.2-.6 1.16 0 1.92.42.78.4 1.16 1.26t.38 2.16V15h-1.62V9.04q0-.9-.24-1.48a1.6 1.6 0 0 0-.72-.86q-.48-.28-1.26-.28-.88 0-1.54.38t-1.02 1.06-.36 1.6V15zm14.647.18q-.76 0-1.48-.16a7 7 0 0 1-1.32-.4 4.5 4.5 0 0 1-1.04-.66l.52-1.14a5.2 5.2 0 0 0 1.04.64q.56.24 1.14.36t1.18.12q1.14 0 1.72-.42t.58-1.14q0-.56-.38-.88-.38-.34-1.2-.52l-1.82-.4q-1.26-.26-1.88-.9-.6-.64-.6-1.66 0-.9.46-1.54.48-.66 1.34-1.02t2-.36q.68 0 1.3.14t1.16.42q.56.26.96.66l-.54 1.14q-.38-.36-.86-.6-.48-.26-1-.38a3.8 3.8 0 0 0-1.02-.14q-1.12 0-1.7.44t-.58 1.16q0 .56.36.92t1.12.52l1.82.38q1.3.28 1.94.9.66.6.66 1.64 0 .88-.48 1.54-.48.64-1.36 1-.86.34-2.04.34m6.149-12.32V1.04h2v1.82zm.2 12.14V5.28h1.62V15zm8.348.18q-1.299 0-2.28-.62-.96-.62-1.5-1.74-.52-1.14-.52-2.68 0-1.56.52-2.68.54-1.14 1.5-1.74.981-.62 2.28-.62 1.32 0 2.26.66a3.17 3.17 0 0 1 1.26 1.78h-.22V.9h1.62V15h-1.58v-2.32h.2a3.24 3.24 0 0 1-1.28 1.82q-.94.68-2.26.68m.34-1.3q1.38 0 2.18-.96.82-.98.82-2.78 0-1.82-.82-2.78-.8-.96-2.18-.96-1.36 0-2.18.96t-.82 2.78q0 1.8.82 2.78.82.96 2.18.96m12.001 1.3q-1.54 0-2.66-.6a4.4 4.4 0 0 1-1.72-1.74q-.6-1.12-.6-2.68 0-1.52.6-2.64.6-1.14 1.64-1.78 1.06-.64 2.44-.64 1.32 0 2.26.58t1.44 1.64q.52 1.06.52 2.54v.62h-7.66V9.42h6.58l-.32.26q0-1.6-.72-2.48-.7-.9-2.06-.9-1.02 0-1.74.48-.7.46-1.06 1.3-.36.82-.36 1.92v.12q0 1.22.38 2.06.4.84 1.18 1.28.78.42 1.86.42.86 0 1.66-.26a4.7 4.7 0 0 0 1.54-.9l.56 1.14q-.66.6-1.68.96a6.2 6.2 0 0 1-2.08.36m6.264-.18V5.28h1.58v2.3h-.2q.34-1.18 1.18-1.78.84-.62 2.22-.72l.58-.06.12 1.4-1.02.12q-1.36.12-2.1.88-.72.74-.72 2.04V15zm17.225.18q-1.32 0-2.28-.68a3.27 3.27 0 0 1-1.26-1.82h.2V15h-1.58V.9h1.62v6.64h-.24a3.27 3.27 0 0 1 1.28-1.78q.94-.66 2.26-.66t2.28.62q.96.6 1.48 1.74.54 1.12.54 2.68 0 1.54-.54 2.68-.52 1.12-1.5 1.74-.96.62-2.26.62m-.34-1.3q1.38 0 2.18-.96.82-.98.82-2.78 0-1.82-.82-2.78-.8-.96-2.18-.96-1.36 0-2.18.96t-.82 2.78q0 1.8.82 2.78.82.96 2.18.96m11.46 1.3q-1.54 0-2.66-.6a4.4 4.4 0 0 1-1.72-1.74q-.6-1.12-.6-2.68 0-1.52.6-2.64.6-1.14 1.64-1.78 1.06-.64 2.44-.64 1.32 0 2.26.58t1.44 1.64q.52 1.06.52 2.54v.62h-7.66V9.42h6.58l-.32.26q0-1.6-.72-2.48-.7-.9-2.06-.9-1.02 0-1.74.48-.7.46-1.06 1.3-.36.82-.36 1.92v.12q0 1.22.38 2.06.4.84 1.18 1.28.78.42 1.86.42.86 0 1.66-.26a4.7 4.7 0 0 0 1.54-.9l.56 1.14q-.66.6-1.68.96t-2.08.36m6.784-.18V6.54h-1.92V5.28h2.36l-.44.42v-.76q0-1.94.96-2.94.981-1 3-1.12l.78-.04.14 1.24-.92.06q-.82.06-1.34.36t-.76.86-.24 1.38v.84l-.24-.3h3.04v1.26h-2.8V15zm9.907.18q-1.419 0-2.46-.62a4.26 4.26 0 0 1-1.62-1.74q-.56-1.14-.56-2.68t.56-2.66q.58-1.14 1.62-1.76t2.46-.62 2.46.62 1.6 1.76q.58 1.12.58 2.66t-.58 2.68a4.1 4.1 0 0 1-1.6 1.74q-1.04.62-2.46.62m0-1.3q1.38 0 2.18-.96.82-.98.82-2.8 0-1.8-.82-2.76-.8-.96-2.18-.96-1.36 0-2.18.96t-.82 2.76q0 1.82.82 2.8.82.96 2.18.96m7.073 1.12V5.28h1.58v2.3h-.2q.34-1.18 1.18-1.78.84-.62 2.22-.72l.58-.06.12 1.4-1.02.12q-1.359.12-2.1.88-.72.74-.72 2.04V15zm11.431.18q-1.54 0-2.66-.6a4.4 4.4 0 0 1-1.72-1.74q-.6-1.12-.6-2.68 0-1.52.6-2.64.6-1.14 1.64-1.78 1.06-.64 2.44-.64 1.32 0 2.26.58t1.44 1.64q.52 1.06.52 2.54v.62h-7.66V9.42h6.58l-.32.26q0-1.6-.72-2.48-.7-.9-2.06-.9-1.02 0-1.74.48-.7.46-1.06 1.3-.36.82-.36 1.92v.12q0 1.22.38 2.06.4.84 1.18 1.28.78.42 1.86.42.86 0 1.66-.26a4.7 4.7 0 0 0 1.54-.9l.56 1.14q-.66.6-1.68.96t-2.08.36m11.401-.18V5.28h1.58v2.3h-.2q.34-1.18 1.18-1.78.84-.62 2.22-.72l.58-.06.12 1.4-1.02.12q-1.359.12-2.1.88-.72.74-.72 2.04V15zm11.431.18q-1.54 0-2.66-.6a4.4 4.4 0 0 1-1.72-1.74q-.6-1.12-.6-2.68 0-1.52.6-2.64.6-1.14 1.64-1.78 1.06-.64 2.44-.64 1.32 0 2.26.58t1.44 1.64q.52 1.06.52 2.54v.62h-7.66V9.42h6.58l-.32.26q0-1.6-.72-2.48-.7-.9-2.06-.9-1.02 0-1.74.48-.7.46-1.06 1.3-.36.82-.36 1.92v.12q0 1.22.38 2.06.4.84 1.18 1.28.78.42 1.86.42.86 0 1.66-.26a4.7 4.7 0 0 0 1.54-.9l.56 1.14q-.66.6-1.68.96t-2.08.36m10.385 0q-1.461 0-2.52-.64a4.3 4.3 0 0 1-1.64-1.78q-.56-1.16-.56-2.68 0-1.54.56-2.66a4.1 4.1 0 0 1 1.64-1.72q1.059-.6 2.52-.6.9 0 1.78.32t1.46.9l-.56 1.18a3.7 3.7 0 0 0-1.28-.82 3.6 3.6 0 0 0-1.3-.26q-1.521 0-2.34.96-.82.94-.82 2.72 0 1.74.82 2.76.819 1 2.34 1 .62 0 1.3-.26a3.6 3.6 0 0 0 1.28-.84l.56 1.18q-.58.58-1.48.92a5.1 5.1 0 0 1-1.76.32m8.982 0q-1.419 0-2.46-.62a4.26 4.26 0 0 1-1.62-1.74q-.56-1.14-.56-2.68t.56-2.66q.58-1.14 1.62-1.76t2.46-.62 2.46.62 1.6 1.76q.58 1.12.58 2.66t-.58 2.68a4.1 4.1 0 0 1-1.6 1.74q-1.04.62-2.46.62m0-1.3q1.38 0 2.18-.96.82-.98.82-2.8 0-1.8-.82-2.76-.8-.96-2.18-.96-1.36 0-2.18.96t-.82 2.76q0 1.82.82 2.8.82.96 2.18.96m7.074 1.12V5.28h1.58v2.3h-.2q.34-1.18 1.18-1.78.84-.62 2.22-.72l.58-.06.12 1.4-1.02.12q-1.36.12-2.1.88-.72.74-.72 2.04V15zm10.75.18q-1.299 0-2.28-.62-.96-.62-1.5-1.74-.52-1.14-.52-2.68 0-1.56.52-2.68.54-1.14 1.5-1.74.981-.62 2.28-.62 1.32 0 2.26.66a3.17 3.17 0 0 1 1.26 1.78h-.22V.9h1.62V15h-1.58v-2.32h.2a3.24 3.24 0 0 1-1.28 1.82q-.94.68-2.26.68m.34-1.3q1.38 0 2.18-.96.82-.98.82-2.78 0-1.82-.82-2.78-.8-.96-2.18-.96-1.36 0-2.18.96t-.82 2.78q0 1.8.82 2.78.82.96 2.18.96m7.421-11.02V1.04h2v1.82zm.2 12.14V5.28h1.62V15zm4.648 0V5.28h1.58v2.16h-.22q.42-1.16 1.36-1.74.96-.6 2.2-.6 1.16 0 1.92.42.78.4 1.16 1.26t.38 2.16V15h-1.62V9.04q0-.9-.24-1.48a1.6 1.6 0 0 0-.72-.86q-.48-.28-1.26-.28-.88 0-1.54.38t-1.02 1.06-.36 1.6V15zm15.667 3.78q-1.26 0-2.38-.34a5.9 5.9 0 0 1-1.96-.98l.54-1.18q.6.42 1.18.68.6.28 1.22.4.64.12 1.32.12 1.42 0 2.14-.76.74-.76.74-2.2v-2.26h.2a3.12 3.12 0 0 1-1.28 1.84q-.96.68-2.26.68-1.34 0-2.32-.6a4.15 4.15 0 0 1-1.52-1.72q-.52-1.1-.52-2.54t.52-2.52q.54-1.1 1.52-1.7t2.32-.6q1.32 0 2.28.68.96.66 1.24 1.8h-.18v-2.3h1.58v9.02q0 1.48-.5 2.48a3.2 3.2 0 0 1-1.46 1.5q-.98.5-2.42.5m-.24-5.32q1.4 0 2.22-.96t.82-2.58-.82-2.56q-.82-.96-2.22-.96-1.38 0-2.2.96-.82.94-.82 2.56t.82 2.58 2.2.96M702.23 15l-4.18-9.72h1.76l3.48 8.52h-.54l3.54-8.52h1.66l-4.2 9.72zm7.233-12.14V1.04h2v1.82zm.2 12.14V5.28h1.62V15zm8.348.18q-1.3 0-2.28-.62-.96-.62-1.5-1.74-.52-1.14-.52-2.68 0-1.56.52-2.68.54-1.14 1.5-1.74.98-.62 2.28-.62 1.32 0 2.26.66a3.17 3.17 0 0 1 1.26 1.78h-.22V.9h1.62V15h-1.58v-2.32h.2a3.24 3.24 0 0 1-1.28 1.82q-.94.68-2.26.68m.34-1.3q1.38 0 2.18-.96.82-.98.82-2.78 0-1.82-.82-2.78-.8-.96-2.18-.96-1.36 0-2.18.96t-.82 2.78q0 1.8.82 2.78.82.96 2.18.96m12 1.3q-1.54 0-2.66-.6a4.4 4.4 0 0 1-1.72-1.74q-.6-1.12-.6-2.68 0-1.52.6-2.64.6-1.14 1.64-1.78 1.06-.64 2.44-.64 1.32 0 2.26.58t1.44 1.64q.52 1.06.52 2.54v.62h-7.66V9.42h6.58l-.32.26q0-1.6-.72-2.48-.7-.9-2.06-.9-1.02 0-1.74.48-.7.46-1.06 1.3-.36.82-.36 1.92v.12q0 1.22.38 2.06.4.84 1.18 1.28.78.42 1.86.42.86 0 1.66-.26a4.7 4.7 0 0 0 1.54-.9l.56 1.14q-.66.6-1.68.96t-2.08.36m10.305 0q-1.42 0-2.46-.62a4.25 4.25 0 0 1-1.62-1.74q-.56-1.14-.56-2.68t.56-2.66q.579-1.14 1.62-1.76 1.04-.62 2.46-.62t2.46.62 1.6 1.76q.58 1.12.58 2.66t-.58 2.68a4.13 4.13 0 0 1-1.6 1.74q-1.041.62-2.46.62m0-1.3q1.38 0 2.18-.96.82-.98.82-2.8 0-1.8-.82-2.76-.8-.96-2.18-.96-1.36 0-2.18.96t-.82 2.76q0 1.82.82 2.8.82.96 2.18.96M747.02 15v-2.04h2.04V15zM.766 48V33.9h1.64V48zm13.734.18q-1.3 0-2.28-.62-.96-.62-1.5-1.74-.52-1.14-.52-2.68 0-1.56.52-2.68.54-1.14 1.5-1.74.98-.62 2.28-.62 1.32 0 2.26.66a3.18 3.18 0 0 1 1.26 1.78h-.22V33.9h1.62V48h-1.58v-2.32h.2a3.24 3.24 0 0 1-1.28 1.82q-.94.68-2.26.68m.34-1.3q1.38 0 2.18-.96.82-.98.82-2.78 0-1.82-.82-2.78-.8-.96-2.18-.96-1.36 0-2.18.96t-.82 2.78q0 1.8.82 2.78.82.96 2.18.96m11.66 1.3q-1.419 0-2.46-.62a4.26 4.26 0 0 1-1.62-1.74q-.56-1.14-.56-2.68t.56-2.66q.58-1.14 1.62-1.76t2.46-.62 2.46.62a4.1 4.1 0 0 1 1.6 1.76q.58 1.12.58 2.66t-.58 2.68a4.1 4.1 0 0 1-1.6 1.74q-1.04.62-2.46.62m0-1.3q1.38 0 2.18-.96.82-.98.82-2.8 0-1.8-.82-2.76-.8-.96-2.18-.96-1.36 0-2.18.96t-.82 2.76q0 1.82.82 2.8.82.96 2.18.96M38.71 48v-9.72h1.58v2.16h-.22q.42-1.16 1.36-1.74.96-.6 2.2-.6 1.161 0 1.92.42.78.4 1.16 1.26t.38 2.16V48h-1.62v-5.96q0-.9-.24-1.48a1.6 1.6 0 0 0-.72-.86q-.48-.28-1.26-.28-.88 0-1.54.38t-1.02 1.06-.36 1.6V48zm15.407.18q-1.419 0-2.46-.62a4.26 4.26 0 0 1-1.62-1.74q-.56-1.14-.56-2.68t.56-2.66q.58-1.14 1.62-1.76t2.46-.62 2.46.62a4.1 4.1 0 0 1 1.6 1.76q.58 1.12.58 2.66t-.58 2.68a4.1 4.1 0 0 1-1.6 1.74q-1.04.62-2.46.62m0-1.3q1.38 0 2.18-.96.82-.98.82-2.8 0-1.8-.82-2.76-.8-.96-2.18-.96-1.36 0-2.18.96t-.82 2.76q0 1.82.82 2.8.82.96 2.18.96m10.876 1.3q-1.72 0-2.58-.92t-.86-2.62v-5.1h-1.9v-1.26h1.9V35.3h1.62v2.98h3.08v1.26h-3.08v4.94q0 1.14.48 1.74.48.58 1.56.58.32 0 .64-.08t.58-.16l.28 1.24q-.26.14-.76.26t-.96.12m12.269 0q-1.42 0-2.46-.62a4.26 4.26 0 0 1-1.62-1.74q-.56-1.14-.56-2.68t.56-2.66q.58-1.14 1.62-1.76t2.46-.62 2.46.62a4.1 4.1 0 0 1 1.6 1.76q.58 1.12.58 2.66t-.58 2.68a4.13 4.13 0 0 1-1.6 1.74q-1.04.62-2.46.62m0-1.3q1.38 0 2.18-.96.82-.98.82-2.8 0-1.8-.82-2.76-.8-.96-2.18-.96-1.36 0-2.18.96t-.82 2.76q0 1.82.82 2.8.82.96 2.18.96M86.778 48l-3.62-9.72h1.7l2.98 8.52h-.48l3.08-8.52h1.38l3.02 8.52h-.46l3.02-8.52h1.62L95.379 48h-1.54l-3.18-8.74h.86L88.339 48zm14.237 0v-9.72h1.58v2.16h-.22q.42-1.16 1.36-1.74.96-.6 2.2-.6 1.16 0 1.92.42.78.4 1.16 1.26t.38 2.16V48h-1.62v-5.96q0-.9-.24-1.48a1.6 1.6 0 0 0-.72-.86q-.48-.28-1.26-.28-.88 0-1.54.38t-1.02 1.06-.36 1.6V48zm19.564.18q-1 0-1.8-.38a3.26 3.26 0 0 1-1.24-1.08 2.65 2.65 0 0 1-.46-1.52q0-1.08.54-1.7.56-.62 1.82-.88 1.28-.26 3.48-.26h.9v1.06h-.88q-1.22 0-2.04.08t-1.3.28-.68.52-.2.8q0 .82.56 1.34.58.52 1.56.52.8 0 1.4-.38.62-.38.96-1.04.36-.66.36-1.52v-2.28q0-1.24-.5-1.78-.5-.56-1.64-.56-.88 0-1.7.26a6.4 6.4 0 0 0-1.68.8l-.56-1.18q.52-.36 1.18-.62.66-.28 1.38-.42t1.38-.14q1.26 0 2.08.42.82.4 1.22 1.24.4.82.4 2.12V48h-1.52v-2.26h.18q-.16.76-.62 1.3-.44.54-1.1.84t-1.48.3m7.545-.18v-9.72h1.58v2.16h-.22q.42-1.16 1.36-1.74.96-.6 2.2-.6 1.161 0 1.92.42.78.4 1.16 1.26t.38 2.16V48h-1.62v-5.96q0-.9-.24-1.48a1.6 1.6 0 0 0-.72-.86q-.48-.28-1.26-.28-.88 0-1.54.38t-1.02 1.06-.36 1.6V48zm12.39 3.6 1.82-4.1v.7l-4.26-9.92h1.76l3.48 8.52h-.54l3.52-8.52h1.7l-5.78 13.32zm17.27-3.42q-1.48 0-2.24-.88-.74-.88-.74-2.52V33.9h1.62v10.76q0 .7.18 1.18.2.48.58.72t.94.24q.24 0 .46-.02.24-.04.44-.1l-.04 1.36q-.32.06-.62.1-.28.04-.58.04m2.738-12.32v-1.82h2v1.82zm.2 12.14v-9.72h1.62V48zm8.768.18q-1.46 0-2.52-.64a4.33 4.33 0 0 1-1.64-1.78q-.56-1.16-.56-2.68 0-1.54.56-2.66a4.1 4.1 0 0 1 1.64-1.72q1.06-.6 2.52-.6.9 0 1.78.32t1.46.9l-.56 1.18a3.7 3.7 0 0 0-1.28-.82 3.6 3.6 0 0 0-1.3-.26q-1.52 0-2.34.96-.82.94-.82 2.72 0 1.74.82 2.76.82 1 2.34 1 .62 0 1.3-.26a3.55 3.55 0 0 0 1.28-.84l.56 1.18q-.58.58-1.48.92a5.1 5.1 0 0 1-1.76.32m9.323 0q-1.54 0-2.66-.6a4.4 4.4 0 0 1-1.72-1.74q-.6-1.12-.6-2.68 0-1.52.6-2.64.6-1.14 1.64-1.78 1.06-.64 2.44-.64 1.32 0 2.26.58t1.44 1.64q.52 1.06.52 2.54v.62h-7.66v-1.06h6.58l-.32.26q0-1.6-.72-2.48-.7-.9-2.06-.9-1.02 0-1.74.48-.7.46-1.06 1.3-.36.82-.36 1.92v.12q0 1.22.38 2.06.4.84 1.18 1.28.78.42 1.86.42.86 0 1.66-.26a4.7 4.7 0 0 0 1.54-.9l.56 1.14q-.66.6-1.68.96t-2.08.36m6.264-.18v-9.72h1.58v2.16h-.22q.42-1.16 1.36-1.74.96-.6 2.2-.6 1.161 0 1.92.42.78.4 1.16 1.26t.38 2.16V48h-1.62v-5.96q0-.9-.24-1.48a1.6 1.6 0 0 0-.72-.86q-.48-.28-1.26-.28-.88 0-1.54.38t-1.02 1.06-.36 1.6V48zm14.648.18q-.76 0-1.48-.16a7 7 0 0 1-1.32-.4 4.5 4.5 0 0 1-1.04-.66l.52-1.14q.48.38 1.04.64.56.24 1.14.36t1.18.12q1.14 0 1.72-.42t.58-1.14q0-.56-.38-.88-.381-.34-1.2-.52l-1.82-.4q-1.26-.26-1.88-.9-.6-.64-.6-1.66 0-.9.46-1.54.48-.66 1.34-1.02t2-.36q.68 0 1.3.14t1.16.42q.56.26.96.66l-.54 1.14q-.38-.36-.86-.6-.48-.26-1-.38a3.8 3.8 0 0 0-1.02-.14q-1.12 0-1.7.44t-.58 1.16q0 .56.36.92t1.12.52l1.82.38q1.3.28 1.94.9.66.6.66 1.64 0 .88-.48 1.54-.48.64-1.36 1-.861.34-2.04.34m10.729 0q-1.54 0-2.66-.6a4.4 4.4 0 0 1-1.72-1.74q-.6-1.12-.6-2.68 0-1.52.6-2.64a4.5 4.5 0 0 1 1.64-1.78q1.06-.64 2.44-.64 1.32 0 2.26.58t1.44 1.64q.52 1.06.52 2.54v.62h-7.66v-1.06h6.58l-.32.26q0-1.6-.72-2.48-.7-.9-2.06-.9-1.02 0-1.74.48-.7.46-1.06 1.3-.36.82-.36 1.92v.12q0 1.22.38 2.06.4.84 1.18 1.28.78.42 1.86.42.86 0 1.66-.26a4.7 4.7 0 0 0 1.54-.9l.56 1.14q-.66.6-1.68.96a6.2 6.2 0 0 1-2.08.36m6.844 2.1-.76-.58q.36-.38.54-.72a1.9 1.9 0 0 0 .26-.66q.08-.32.08-.66l.36.34h-1.32v-2.04h2.04v1.44q0 .54-.12 1.02a3.3 3.3 0 0 1-.36.96 4 4 0 0 1-.72.9m12.168-2.1q-1 0-1.8-.38a3.26 3.26 0 0 1-1.24-1.08 2.65 2.65 0 0 1-.46-1.52q0-1.08.54-1.7.56-.62 1.82-.88 1.28-.26 3.48-.26h.9v1.06h-.88q-1.221 0-2.04.08-.82.08-1.3.28t-.68.52-.2.8q0 .82.56 1.34.579.52 1.56.52.8 0 1.4-.38.62-.38.96-1.04.36-.66.36-1.52v-2.28q0-1.24-.5-1.78-.5-.56-1.64-.56-.88 0-1.7.26a6.4 6.4 0 0 0-1.68.8l-.56-1.18q.52-.36 1.18-.62.66-.28 1.38-.42t1.38-.14q1.26 0 2.08.42.82.4 1.22 1.24.4.82.4 2.12V48h-1.52v-2.26h.18q-.16.76-.62 1.3a3 3 0 0 1-1.1.84q-.66.3-1.48.3m10.525 0q-1.48 0-2.24-.88-.74-.88-.74-2.52V33.9h1.62v10.76q0 .7.18 1.18.2.48.58.72t.94.24q.24 0 .46-.02.24-.04.44-.1l-.04 1.36q-.32.06-.62.1-.28.04-.58.04m5.918 0q-1.48 0-2.24-.88-.74-.88-.74-2.52V33.9h1.62v10.76q0 .7.18 1.18.2.48.58.72t.94.24q.24 0 .46-.02.24-.04.44-.1l-.04 1.36q-.32.06-.62.1-.28.04-.58.04m8.115-.18v-9.72h1.58v2.16h-.22q.24-.74.7-1.26.48-.54 1.12-.8.66-.28 1.44-.28 1.24 0 2 .6.78.58 1.04 1.82h-.3q.36-1.12 1.28-1.76.94-.66 2.18-.66 1.1 0 1.8.42.72.42 1.08 1.28.36.84.36 2.14V48h-1.62v-5.98q0-1.34-.46-1.96-.46-.64-1.56-.64-.78 0-1.38.38a2.5 2.5 0 0 0-.9 1.08q-.3.68-.3 1.62V48h-1.62v-5.98q0-1.34-.48-1.96-.46-.64-1.54-.64-.801 0-1.38.38a2.5 2.5 0 0 0-.9 1.08q-.3.68-.3 1.62V48zm20.529.18q-1.18 0-1.96-.42-.76-.44-1.16-1.3-.38-.86-.38-2.14v-6.04h1.62v6.02q0 .86.22 1.44.24.56.74.84.5.26 1.24.26.84 0 1.46-.38t.98-1.06.36-1.6v-5.52h1.62V48h-1.58v-2.24h.26q-.4 1.18-1.32 1.8-.9.62-2.1.62m11.051 0q-.76 0-1.48-.16a7 7 0 0 1-1.32-.4 4.5 4.5 0 0 1-1.04-.66l.52-1.14q.48.38 1.04.64.56.24 1.14.36t1.18.12q1.14 0 1.72-.42t.58-1.14q0-.56-.38-.88-.381-.34-1.2-.52l-1.82-.4q-1.26-.26-1.88-.9-.6-.64-.6-1.66 0-.9.46-1.54.48-.66 1.34-1.02t2-.36q.68 0 1.3.14t1.16.42q.56.26.96.66l-.54 1.14q-.38-.36-.86-.6-.48-.26-1-.38a3.8 3.8 0 0 0-1.02-.14q-1.12 0-1.7.44t-.58 1.16q0 .56.36.92t1.12.52l1.82.38q1.3.28 1.94.9.66.6.66 1.64 0 .88-.48 1.54-.48.64-1.36 1-.861.34-2.04.34m6.148-12.32v-1.82h2v1.82zm.2 12.14v-9.72h1.62V48zm8.769.18q-1.46 0-2.52-.64a4.3 4.3 0 0 1-1.64-1.78q-.56-1.16-.56-2.68 0-1.54.56-2.66a4.1 4.1 0 0 1 1.64-1.72q1.06-.6 2.52-.6.9 0 1.78.32t1.46.9l-.56 1.18a3.7 3.7 0 0 0-1.28-.82 3.6 3.6 0 0 0-1.3-.26q-1.52 0-2.34.96-.82.94-.82 2.72 0 1.74.82 2.76.82 1 2.34 1 .62 0 1.3-.26a3.55 3.55 0 0 0 1.28-.84l.56 1.18q-.58.58-1.48.92a5.1 5.1 0 0 1-1.76.32m13.334 0q-.999 0-1.8-.38a3.26 3.26 0 0 1-1.24-1.08 2.66 2.66 0 0 1-.46-1.52q0-1.08.54-1.7.56-.62 1.82-.88 1.281-.26 3.48-.26h.9v1.06h-.88q-1.22 0-2.04.08t-1.3.28-.68.52-.2.8q0 .82.56 1.34.58.52 1.56.52.8 0 1.4-.38.621-.38.96-1.04.36-.66.36-1.52v-2.28q0-1.24-.5-1.78-.5-.56-1.64-.56-.88 0-1.7.26a6.4 6.4 0 0 0-1.68.8l-.56-1.18q.52-.36 1.18-.62.66-.28 1.38-.42t1.38-.14q1.26 0 2.08.42.82.4 1.22 1.24.4.82.4 2.12V48h-1.52v-2.26h.18q-.16.76-.62 1.3-.44.54-1.1.84t-1.48.3m7.546-.18v-9.72h1.58v2.16h-.22q.42-1.16 1.36-1.74.96-.6 2.2-.6 1.16 0 1.92.42.78.4 1.16 1.26t.38 2.16V48h-1.62v-5.96q0-.9-.24-1.48a1.6 1.6 0 0 0-.72-.86q-.48-.28-1.26-.28-.88 0-1.54.38t-1.02 1.06-.36 1.6V48zm15.067.18q-1.3 0-2.28-.62-.96-.62-1.5-1.74-.52-1.14-.52-2.68 0-1.56.52-2.68.54-1.14 1.5-1.74.98-.62 2.28-.62 1.32 0 2.26.66a3.17 3.17 0 0 1 1.26 1.78h-.22V33.9h1.62V48h-1.58v-2.32h.2a3.24 3.24 0 0 1-1.28 1.82q-.94.68-2.26.68m.34-1.3q1.38 0 2.18-.96.82-.98.82-2.78 0-1.82-.82-2.78-.8-.96-2.18-.96-1.36 0-2.18.96t-.82 2.78q0 1.8.82 2.78.82.96 2.18.96m15.737 1.3q-1.48 0-2.24-.88-.74-.88-.74-2.52V33.9h1.62v10.76q0 .7.18 1.18.2.48.58.72t.94.24q.24 0 .46-.02.24-.04.44-.1l-.04 1.36q-.32.06-.62.1-.28.04-.58.04m6.88 0q-1.419 0-2.46-.62a4.26 4.26 0 0 1-1.62-1.74q-.56-1.14-.56-2.68t.56-2.66q.58-1.14 1.62-1.76t2.46-.62 2.46.62 1.6 1.76q.58 1.12.58 2.66t-.58 2.68a4.1 4.1 0 0 1-1.6 1.74q-1.04.62-2.46.62m0-1.3q1.38 0 2.18-.96.82-.98.82-2.8 0-1.8-.82-2.76-.8-.96-2.18-.96-1.36 0-2.18.96t-.82 2.76q0 1.82.82 2.8.82.96 2.18.96m11.374 4.9q-1.26 0-2.38-.34a5.9 5.9 0 0 1-1.96-.98l.54-1.18q.6.42 1.18.68.6.28 1.22.4.639.12 1.32.12 1.42 0 2.14-.76.74-.76.74-2.2v-2.26h.2a3.12 3.12 0 0 1-1.28 1.84q-.96.68-2.26.68-1.34 0-2.32-.6a4.14 4.14 0 0 1-1.52-1.72q-.52-1.1-.52-2.54t.52-2.52q.54-1.1 1.52-1.7t2.32-.6q1.32 0 2.28.68.96.66 1.24 1.8h-.18v-2.3h1.58v9.02q0 1.48-.5 2.48a3.2 3.2 0 0 1-1.46 1.5q-.98.5-2.42.5m-.24-5.32q1.4 0 2.22-.96t.82-2.58-.82-2.56q-.82-.96-2.22-.96-1.38 0-2.2.96-.82.94-.82 2.56t.82 2.58 2.2.96m11.698 1.72q-1.419 0-2.46-.62a4.26 4.26 0 0 1-1.62-1.74q-.56-1.14-.56-2.68t.56-2.66q.58-1.14 1.62-1.76t2.46-.62 2.46.62 1.6 1.76q.58 1.12.58 2.66t-.58 2.68a4.1 4.1 0 0 1-1.6 1.74q-1.04.62-2.46.62m0-1.3q1.38 0 2.18-.96.82-.98.82-2.8 0-1.8-.82-2.76-.8-.96-2.18-.96-1.36 0-2.18.96t-.82 2.76q0 1.82.82 2.8.82.96 2.18.96m15.19 1.3q-1.48 0-2.24-.88-.74-.88-.74-2.52V33.9h1.62v10.76q0 .7.18 1.18.2.48.58.72t.94.24q.24 0 .46-.02.24-.04.44-.1l-.04 1.36q-.32.06-.62.1-.28.04-.58.04m2.738-12.32v-1.82h2v1.82zm.2 12.14v-9.72h1.62V48zm8.769.18q-1.461 0-2.52-.64a4.3 4.3 0 0 1-1.64-1.78q-.56-1.16-.56-2.68 0-1.54.56-2.66a4.1 4.1 0 0 1 1.64-1.72q1.059-.6 2.52-.6.9 0 1.78.32t1.46.9l-.56 1.18a3.7 3.7 0 0 0-1.28-.82 3.6 3.6 0 0 0-1.3-.26q-1.521 0-2.34.96-.82.94-.82 2.72 0 1.74.82 2.76.819 1 2.34 1 .62 0 1.3-.26a3.6 3.6 0 0 0 1.28-.84l.56 1.18q-.58.58-1.48.92a5.1 5.1 0 0 1-1.76.32m9.322 0q-1.54 0-2.66-.6a4.4 4.4 0 0 1-1.72-1.74q-.6-1.12-.6-2.68 0-1.52.6-2.64.6-1.14 1.64-1.78 1.06-.64 2.44-.64 1.32 0 2.26.58t1.44 1.64q.52 1.06.52 2.54v.62h-7.66v-1.06h6.58l-.32.26q0-1.6-.72-2.48-.7-.9-2.06-.9-1.02 0-1.74.48-.7.46-1.06 1.3-.36.82-.36 1.92v.12q0 1.22.38 2.06.4.84 1.18 1.28.78.42 1.86.42.86 0 1.66-.26a4.7 4.7 0 0 0 1.54-.9l.56 1.14q-.66.6-1.68.96t-2.08.36m6.265-.18v-9.72h1.58v2.16h-.22q.42-1.16 1.36-1.74.96-.6 2.2-.6 1.16 0 1.92.42.78.4 1.16 1.26t.38 2.16V48h-1.62v-5.96q0-.9-.24-1.48a1.6 1.6 0 0 0-.72-.86q-.48-.28-1.26-.28-.88 0-1.54.38t-1.02 1.06-.36 1.6V48zm14.647.18q-.76 0-1.48-.16a7 7 0 0 1-1.32-.4 4.5 4.5 0 0 1-1.04-.66l.52-1.14a5.2 5.2 0 0 0 1.04.64q.56.24 1.14.36t1.18.12q1.14 0 1.72-.42t.58-1.14q0-.56-.38-.88-.38-.34-1.2-.52l-1.82-.4q-1.26-.26-1.88-.9-.6-.64-.6-1.66 0-.9.46-1.54.48-.66 1.34-1.02t2-.36q.68 0 1.3.14t1.16.42q.56.26.96.66l-.54 1.14q-.38-.36-.86-.6-.48-.26-1-.38a3.8 3.8 0 0 0-1.02-.14q-1.12 0-1.7.44t-.58 1.16q0 .56.36.92t1.12.52l1.82.38q1.3.28 1.94.9.66.6.66 1.64 0 .88-.48 1.54-.48.64-1.36 1-.86.34-2.04.34m10.729 0q-1.54 0-2.66-.6a4.4 4.4 0 0 1-1.72-1.74q-.6-1.12-.6-2.68 0-1.52.6-2.64a4.5 4.5 0 0 1 1.64-1.78q1.06-.64 2.44-.64 1.32 0 2.26.58t1.44 1.64q.52 1.06.52 2.54v.62h-7.66v-1.06h6.58l-.32.26q0-1.6-.72-2.48-.7-.9-2.06-.9-1.02 0-1.74.48-.7.46-1.06 1.3-.36.82-.36 1.92v.12q0 1.22.38 2.06.4.84 1.18 1.28.78.42 1.86.42.86 0 1.66-.26a4.7 4.7 0 0 0 1.54-.9l.56 1.14q-.66.6-1.68.96a6.2 6.2 0 0 1-2.08.36m9.544 0q-.76 0-1.48-.16a7 7 0 0 1-1.32-.4 4.5 4.5 0 0 1-1.04-.66l.52-1.14a5.2 5.2 0 0 0 1.04.64q.561.24 1.14.36.58.12 1.18.12 1.14 0 1.72-.42t.58-1.14q0-.56-.38-.88-.38-.34-1.2-.52l-1.82-.4q-1.26-.26-1.88-.9-.6-.64-.6-1.66 0-.9.46-1.54.48-.66 1.34-1.02t2-.36q.68 0 1.3.14t1.16.42q.561.26.96.66l-.54 1.14q-.38-.36-.86-.6-.48-.26-1-.38a3.8 3.8 0 0 0-1.02-.14q-1.12 0-1.7.44t-.58 1.16q0 .56.36.92t1.12.52l1.82.38q1.3.28 1.94.9.66.6.66 1.64 0 .88-.48 1.54-.48.64-1.36 1-.86.34-2.04.34m16.406 0q-1.32 0-2.28-.68a3.27 3.27 0 0 1-1.26-1.82h.2V48h-1.58V33.9h1.62v6.64h-.24a3.28 3.28 0 0 1 1.28-1.78q.94-.66 2.26-.66t2.28.62q.96.6 1.48 1.74.54 1.12.54 2.68 0 1.54-.54 2.68-.52 1.12-1.5 1.74-.96.62-2.26.62m-.34-1.3q1.38 0 2.18-.96.82-.98.82-2.78 0-1.82-.82-2.78-.8-.96-2.18-.96-1.36 0-2.18.96t-.82 2.78q0 1.8.82 2.78.82.96 2.18.96m11.46 1.3q-1.54 0-2.66-.6a4.4 4.4 0 0 1-1.72-1.74q-.6-1.12-.6-2.68 0-1.52.6-2.64.6-1.14 1.64-1.78 1.06-.64 2.44-.64 1.32 0 2.26.58t1.44 1.64q.52 1.06.52 2.54v.62h-7.66v-1.06h6.58l-.32.26q0-1.6-.72-2.48-.7-.9-2.06-.9-1.02 0-1.74.48-.7.46-1.06 1.3-.36.82-.36 1.92v.12q0 1.22.38 2.06.4.84 1.18 1.28.78.42 1.86.42.86 0 1.66-.26a4.7 4.7 0 0 0 1.54-.9l.56 1.14q-.66.6-1.68.96t-2.08.36m9.245 0q-1.48 0-2.24-.88-.74-.88-.74-2.52V33.9h1.62v10.76q0 .7.18 1.18.2.48.58.72t.94.24q.24 0 .46-.02.24-.04.44-.1l-.04 1.36q-.32.06-.62.1-.28.04-.58.04m6.88 0q-1.42 0-2.46-.62a4.26 4.26 0 0 1-1.62-1.74q-.56-1.14-.56-2.68t.56-2.66q.58-1.14 1.62-1.76t2.46-.62 2.46.62a4.1 4.1 0 0 1 1.6 1.76q.58 1.12.58 2.66t-.58 2.68a4.1 4.1 0 0 1-1.6 1.74q-1.04.62-2.46.62m0-1.3q1.38 0 2.18-.96.82-.98.82-2.8 0-1.8-.82-2.76-.8-.96-2.18-.96-1.36 0-2.18.96t-.82 2.76q0 1.82.82 2.8.82.96 2.18.96m7.073 1.12v-9.72h1.58v2.16h-.22q.42-1.16 1.36-1.74.96-.6 2.2-.6 1.161 0 1.92.42.78.4 1.16 1.26t.38 2.16V48h-1.62v-5.96q0-.9-.24-1.48a1.6 1.6 0 0 0-.72-.86q-.48-.28-1.26-.28-.88 0-1.54.38t-1.02 1.06-.36 1.6V48zm15.667 3.78q-1.26 0-2.38-.34a5.9 5.9 0 0 1-1.96-.98l.54-1.18q.6.42 1.18.68.6.28 1.22.4.64.12 1.32.12 1.42 0 2.14-.76.74-.76.74-2.2v-2.26h.2a3.12 3.12 0 0 1-1.28 1.84q-.96.68-2.26.68-1.34 0-2.32-.6a4.15 4.15 0 0 1-1.52-1.72q-.52-1.1-.52-2.54t.52-2.52q.54-1.1 1.52-1.7t2.32-.6q1.32 0 2.28.68.96.66 1.24 1.8h-.18v-2.3h1.58v9.02q0 1.48-.5 2.48a3.2 3.2 0 0 1-1.46 1.5q-.98.5-2.42.5m-.24-5.32q1.401 0 2.22-.96t.82-2.58-.82-2.56q-.819-.96-2.22-.96-1.38 0-2.2.96-.82.94-.82 2.56t.82 2.58 2.2.96m16.696 1.72q-1.72 0-2.58-.92t-.86-2.62v-5.1h-1.9v-1.26h1.9V35.3h1.62v2.98h3.08v1.26h-3.08v4.94q0 1.14.48 1.74.48.58 1.56.58.32 0 .64-.08t.58-.16l.28 1.24q-.26.14-.76.26t-.96.12m7.034 0q-1.419 0-2.46-.62a4.26 4.26 0 0 1-1.62-1.74q-.56-1.14-.56-2.68t.56-2.66q.58-1.14 1.62-1.76t2.46-.62 2.46.62 1.6 1.76q.58 1.12.58 2.66t-.58 2.68a4.1 4.1 0 0 1-1.6 1.74q-1.04.62-2.46.62m0-1.3q1.38 0 2.18-.96.82-.98.82-2.8 0-1.8-.82-2.76-.8-.96-2.18-.96-1.36 0-2.18.96t-.82 2.76q0 1.82.82 2.8.82.96 2.18.96m29.41.148q4.284 2.916 10.44 5.724a30.5 30.5 0 0 0 12.96 2.844q1.188 0 2.088-.18.108-.036.144.144.072.18 0 .216a20 20 0 0 1-4.392.468q-6.012 0-12.348-2.268a53 53 0 0 1-11.88-6.012zm-5.544 1.404q-3.348 0-5.976-1.548a11.06 11.06 0 0 1-4.032-4.248q-1.404-2.7-1.404-5.868 0-3.708 1.872-6.336 1.872-2.664 4.788-3.996 2.952-1.332 6.012-1.332 3.42 0 6.012 1.62 2.592 1.584 3.96 4.212a11.7 11.7 0 0 1 1.404 5.58q0 3.276-1.728 6.012t-4.644 4.32q-2.88 1.584-6.264 1.584m1.26-.756q2.448 0 4.392-1.188 1.98-1.188 3.096-3.456 1.152-2.304 1.152-5.508 0-3.384-1.26-6.012t-3.564-4.104q-2.268-1.476-5.328-1.476-3.96 0-6.192 2.556t-2.232 7.02q0 3.384 1.26 6.192 1.26 2.772 3.528 4.392 2.268 1.584 5.148 1.584m30.155-12.996q0-1.8-.576-2.448t-2.232-.648q-.108 0-.108-.216t.108-.216l1.44.036q1.08.072 1.728.072.504 0 1.512-.072l1.368-.036q.072 0 .072.216t-.072.216q-1.44 0-1.98.648-.504.648-.504 2.448v6.696q0 3.348-1.872 5.22t-5.04 1.872q-2.016 0-3.672-.792a6.53 6.53 0 0 1-2.628-2.34q-.972-1.512-.972-3.6v-7.668q0-1.08-.216-1.584-.18-.504-.756-.684-.54-.216-1.692-.216-.108 0-.108-.216t.108-.216l1.62.036q1.296.072 2.052.072.9 0 2.268-.072l1.548-.036q.108 0 .108.216t-.108.216q-1.152 0-1.728.216t-.792.756q-.18.504-.18 1.584v6.66q0 3.348 1.656 4.968 1.692 1.584 4.32 1.584 2.484 0 3.888-1.512 1.44-1.548 1.44-4.392zM610.067 48q-.072 0-.072-.216t.072-.216q1.188 0 1.728-.18t.72-.684q.216-.54.216-1.62V34.068q0-1.08-.216-1.584-.18-.504-.72-.684-.54-.216-1.728-.216-.072 0-.072-.216t.072-.216h12.528q.36 0 .36.288l.036 2.232q.036.684.036 1.728 0 .108-.216.108t-.216-.108q-.144-1.656-1.224-2.7-1.044-1.08-2.592-1.08h-1.008q-1.26 0-1.836.216-.576.18-.792.684t-.216 1.584V44.94q0 1.044.216 1.584.216.504.792.72.612.18 1.836.18h1.728q1.476 0 2.592-1.152 1.152-1.188 1.548-3.06 0-.108.18-.108.216 0 .216.108-.252 2.592-.252 4.248 0 .288-.108.432-.108.108-.432.108zm11.088-7.74q-.144 0-1.584-.216-1.404-.252-5.544-.252v-.756q4.104 0 5.508-.18 1.44-.18 1.62-.18t.18.756q0 .828-.18.828m5.612 7.74q-.072 0-.072-.216t.072-.216q1.188 0 1.728-.18t.72-.684q.216-.54.216-1.62V34.068q0-1.08-.216-1.584-.18-.504-.72-.684-.54-.216-1.728-.216-.072 0-.072-.216t.072-.216h12.528q.36 0 .36.288l.036 2.232q.036.684.036 1.728 0 .108-.216.108t-.216-.108q-.144-1.656-1.224-2.7-1.044-1.08-2.592-1.08h-1.008q-1.26 0-1.836.216-.576.18-.792.684t-.216 1.584V44.94q0 1.044.216 1.584.216.504.792.72.612.18 1.836.18h1.728q1.476 0 2.592-1.152 1.152-1.188 1.548-3.06 0-.108.18-.108.216 0 .216.108-.252 2.592-.252 4.248 0 .288-.108.432-.108.108-.432.108zm11.088-7.74q-.144 0-1.584-.216-1.404-.252-5.544-.252v-.756q4.104 0 5.508-.18 1.44-.18 1.62-.18t.18.756q0 .828-.18.828m7.879-8.316.72.108v12.024q0 1.908.54 2.7t1.872.792q.072 0 .072.216t-.072.216q-.792 0-1.224-.036l-1.512-.036-1.548.036q-.468.036-1.296.036-.072 0-.072-.216t.072-.216q1.332 0 1.872-.792.576-.792.576-2.7zm13.428 16.452q0 .072-.18.108t-.252-.036l-11.808-14.364q-1.152-1.368-2.016-1.944-.828-.576-1.62-.576-.072 0-.072-.216t.072-.216l2.016.036 1.908-.036q.252 0 .396.144.18.144.504.612.288.468.792 1.116l9.9 12.204zm0 0-.72-1.116V35.076q0-1.908-.54-2.7-.504-.792-1.836-.792-.108 0-.108-.216t.108-.216l1.224.036q.936.072 1.512.072t1.584-.072l1.26-.036q.108 0 .108.216t-.108.216q-1.332 0-1.908.792t-.576 2.7zm12.159-.216q-1 0-1.8-.38a3.26 3.26 0 0 1-1.24-1.08 2.65 2.65 0 0 1-.46-1.52q0-1.08.54-1.7.56-.62 1.82-.88 1.28-.26 3.48-.26h.9v1.06h-.88q-1.22 0-2.04.08t-1.3.28-.68.52-.2.8q0 .82.56 1.34.58.52 1.56.52.8 0 1.4-.38.62-.38.96-1.04.36-.66.36-1.52v-2.28q0-1.24-.5-1.78-.5-.56-1.64-.56-.88 0-1.7.26a6.4 6.4 0 0 0-1.68.8l-.56-1.18q.52-.36 1.18-.62.66-.28 1.38-.42t1.38-.14q1.26 0 2.08.42.82.4 1.22 1.24.4.82.4 2.12V48h-1.52v-2.26h.18q-.16.76-.62 1.3-.44.54-1.1.84t-1.48.3m7.545-.18v-9.72h1.58v2.16h-.22q.42-1.16 1.36-1.74.96-.6 2.2-.6 1.161 0 1.92.42.78.4 1.16 1.26t.38 2.16V48h-1.62v-5.96q0-.9-.24-1.48a1.6 1.6 0 0 0-.72-.86q-.48-.28-1.26-.28-.88 0-1.54.38t-1.02 1.06-.36 1.6V48zm15.068.18q-1.3 0-2.28-.62-.96-.62-1.5-1.74-.52-1.14-.52-2.68 0-1.56.52-2.68.54-1.14 1.5-1.74.98-.62 2.28-.62 1.32 0 2.26.66a3.18 3.18 0 0 1 1.26 1.78h-.22V33.9h1.62V48h-1.58v-2.32h.2a3.24 3.24 0 0 1-1.28 1.82q-.94.68-2.26.68m.34-1.3q1.38 0 2.18-.96.82-.98.82-2.78 0-1.82-.82-2.78-.8-.96-2.18-.96-1.36 0-2.18.96t-.82 2.78q0 1.8.82 2.78.82.96 2.18.96M709.116 48V26.176h7.648v16.352h8.576V48zm17.696 0V26.176h7.648V48zm18.617 0-9.184-21.824h8.256l4.896 13.568h.064l4.672-13.568h6.976L752.053 48zm17.4 0V26.176h16.352v4.608h-8.704v3.84h7.968v4.608h-7.968v4.16h8.832V48zm17.433 0 9.952-21.824h8L808.166 48h-7.584l-1.44-3.552h-9.856L787.846 48zm10.592-7.488h6.688l-3.328-8.64zM809.621 48V26.176h7.648V48zm11.033 0V26.176h10.944c8.448 0 11.84 6.144 11.84 11.2 0 4.96-3.04 10.624-10.464 10.624zm7.648-5.184h2.016c3.712 0 5.472-1.824 5.472-5.728 0-2.88-1.312-5.728-5.44-5.728h-2.048z"/></svg>