<svg xmlns="http://www.w3.org/2000/svg" width="542" height="542" fill="none" viewBox="0 0 542 542"><path fill="#fff" d="m162.145 471-12.048-33.84h7.632l8.784 26.112h-2.064l9.264-26.112h5.376l8.88 26.112h-1.776l8.928-26.112h7.2L190.177 471h-6.048l-8.496-24.048h1.152L168.193 471zm37.422 0 15.552-33.84h6L236.671 471h-7.488l-4.032-9.408 2.976 2.064h-20.016l2.976-2.064-3.984 9.408zm18.48-25.92-6.144 14.64-1.296-1.872h15.024l-1.296 1.872-6.192-14.64zM239.596 471v-33.84h15.456q5.664 0 8.736 2.736t3.072 7.632q0 3.168-1.392 5.472t-4.032 3.552q-2.592 1.248-6.384 1.248l.384-.816h1.968q2.016 0 3.504 1.008 1.536.96 2.64 2.976L269.02 471h-8.208l-5.856-10.8q-.48-.864-1.104-1.344a3.4 3.4 0 0 0-1.44-.72 5.8 5.8 0 0 0-1.728-.24h-3.648V471zm7.44-18.48h6.672q2.976 0 4.464-1.2 1.536-1.2 1.536-3.6 0-2.352-1.536-3.552-1.488-1.2-4.464-1.2h-6.672zM273.017 471v-33.84h5.52l18.192 23.184h-1.296V437.16h6.912V471h-5.472l-18.192-23.232h1.248V471zm36.141 0v-33.84h7.44V471zm14.203 0v-33.84h5.52l18.192 23.184h-1.296V437.16h6.912V471h-5.472l-18.192-23.232h1.248V471zm52.893.528q-5.712 0-9.696-2.16-3.936-2.16-6-6.048t-2.064-9.12q0-5.376 2.112-9.312 2.16-3.936 6.192-6.096 4.08-2.16 9.696-2.16 2.4 0 4.608.48a19.6 19.6 0 0 1 4.08 1.248q1.92.816 3.264 1.968l-2.4 5.808q-2.208-1.632-4.512-2.304-2.304-.72-4.992-.72-5.136 0-7.728 2.832-2.544 2.832-2.544 8.256t2.592 8.208q2.64 2.784 7.776 2.784a19.6 19.6 0 0 0 3.552-.336 24 24 0 0 0 3.6-.96l-1.392 3.024v-9.216h-7.296v-5.376h13.44v16.608q-1.632.816-3.696 1.392a29 29 0 0 1-4.224.864 29 29 0 0 1-4.368.336"/><path fill="#F3B20E" d="M258.01 22.5c5.773-10 20.207-10 25.98 0L492.702 384c5.774 10-1.443 22.5-12.99 22.5H62.288c-11.547 0-18.764-12.5-12.99-22.5z"/><path fill="#000" d="M248.009 268c1.008 23.378 10.904 26 23 26 9.576 0 20.879-1.023 21.5-26 .504-20.261 8.5-100.86 8.5-120.083 0-17.144-18.908-20.917-30.5-20.917s-32.004 4.812-31.5 20.917 7.809 92.453 9 120.083"/><circle cx="271.009" cy="340" r="31" fill="#000"/></svg>